<svg xmlns="http://www.w3.org/2000/svg" width="1751" height="148" fill="none"><path fill="#000" d="M719.55 58.054c-.131-1.025-.992-1.572-1.514-2.377 3.882 1.685-2.071-2.902-2.979-3.108.821-.136 1.533.646 2.192.253.103-.241-1.71-.983-2.038-1.294-1.186-.274-2.282-.91-3.515-.95-.107.006-.243.025-.348-.178 3.716-.052-.593-1.028-1.758-.922-2.574-.445-5.158.26-7.753.086-1.823.218-3.679.403-5.483.737-1.591.218-3.356 1.624-4.781.421.653-.276 3.183.4 3.068-.395-.203-1.06 2.057.477 1.561-.945.473-.05.716.409 1.17.376 1.173-.238-.833-1.142-1.083-1.65.866-.067 2.714 1.515 3.201.918.194-.674-.964-.817-1.28-1.27.767.306 1.563.533 2.263.984.117.078.241.216.365.066-.077-1.037-2.291-1.629-3.026-2.202 2.008.412 3.698 1.41 5.492 2.27.155.121.363.309.532.093.316-.365-.548-.561-.288-.79.65-.607-1.325-1.208-1.737-1.569.707-.119 3.651 1.075 1.55-.435.276-.218 1.249.11.758-.442-1.727-1.135-3.815-1.409-5.79-1.84 1.643-.26 3.274-.55 4.901-.828.117-.035.273-.059.241-.23-.794-.407-1.98-.194-2.902-.386l-.012-.119c1.367-.306 2.553-1.12 3.939-1.34.135-.024.379.07.358-.17-.312-.446-2.968.02-3.576.015 1.455-.826 3.321-.41 4.474-1.779.674-.587-1.06-.271-1.432-.491 2.483-.885 1.371-.763-.407-.756 1.547-.845 3.679-.744 5.005-1.692-.734-.396-1.921.033-2.789.002-3.248.344-6.01 2.172-8.736 3.831a55.504 55.504 0 0 0-4.666 3.405c-.501.258-1.149-.255-1.736-.196.248-.312 4.233-1.294 2.901-1.435-.54-.007-1.081-.002-1.624-.002.623-.335 1.753-.106 2.12-.693-.07-.346-.54 0-.755-.232.559-.145 1.128-.192 1.638-.419.201-.088.596.061.582-.217-.011-.241-.418-.045-.622-.18 1.287-1.035-1.713-.351-2.158-.89 1.035-.196 6.876-.781 2.818-1.511 5.721-1.477 2.413-1.784-1.039-.958 1.411-.627 3.22-.847 4.526-1.486-.539-.42-1.535-.133-2.289-.098.374-.44.943-.234 1.362-.62.498-.215.257-.749-.241-.578-.211.023-.396.201-.66.098 1.975-1.477 2.509-2.66-.314-.997.684-2.44-1.144.356-1.951.48.054-.594 1.149-.828.131-1.09-.066-.026-.162-.003-.194-.134.442-.445 1.738-.358 1.914-.774-.185-.354-.777-.015-1.105-.223.052-.114.164-.246.136-.33-.281-.917 1.151-.564 1.425-1.1-.344-.454-1.261-.093-1.776-.044-1.278-.04 2.909-1.964 2.689-2.457-1.339-.567-2.808.83-4.051 1.338-.11-.763.969-1.107.999-1.739-1.493-.046-2.307 1.697-3.215 2.86.126-2.506-.375-1.877-1.144-.114-.213-.24.086-.56-.206-.721-.178-.073-.295.086-.389.203-.868.99-.686 2.312-.959 3.576-.206-.276-.096-.61-.368-.854-.142.688-.262 1.325-.283 1.982-.274-.978.356-2.324-.222-3.14-.822.25-.641 1.666-.915 2.358-.216-.154-.187-.376-.246-.563-.063-.396-.526-.42-.496.016-.431 1.434.131 2.885-.063 4.301-.187-.278.086-.824-.356-.882-1.287 1.004.14 3.253-.002 4.666-.92-2.864-.929.915-.885 1.86.084.242-.302.422-.292.101.222-1.174-.578-2.209-.206-3.505.002-.155.25-.358.011-.445-.318-.112-.25.419-.47.482-.012-.824.662-2.415-.136-3.01-.402.07-.035.485-.376.682-.066-.543-.277-3.461-.621-3.487-.334-.005-.231.342-.259.557-.071.222.128.636-.176.711-.646-.234-.255-1.33-.519-1.879-.028-.178-.021-.426-.269-.44-.59.279-.225 1.772-.389 2.394-.491-.924-.524-4.266-1.268-4.748-.443.206-.108.896-.155 1.287-.398-1.247-.662-.913-.641.185-.587-1.14-.007-3.1-1.186-3.845-.562.208-.099.756-.443 1.252-.201-.847-1.35-4.533-1.437-1.819-.643-.521-1.209-2.038-2.218-1.696-.136.206.021.35.159.484.74.85 1.346 1.97 1.816 2.91-.929-.888-2.612-1.835-1.095.21.297.868 1.154 1.247 1.57 1.977-.728-.206-1.463-1.357-2.216-.933.087.875 2.427 1.605 2.984 2.831-.599-.164-1.678-1.018-2.139-.927-.026.541.76 1.484 1.324 1.74.382.186 1.018.409 1.1.867-.203.267-1.062.029-.536.632.471.496.719 1.159 1.325 1.627-.361.068-.667-.244-.925.06-.227.342.405.427.333.738-.192.224-.464-.106-.707-.033-.241.054-.44.199-.225.407.606.857 1.507.838 2.399 1.379-1.547.093-.262.355.124.833-.496.217-1.013-.485-1.353-.07.972.975 2.825 1.132 3.665 2.468-.704.14-1.477-1.001-2.094-.512.032.718 2.045 1.554 2.066 2.232-.143.017-.211-.09-.307-.138-.393-.276-.76.263-.294.447.802.43 1.121 1.388 2.052 1.76-.524.223-.77-.121-1.233-.108-.403-.084-.522.377-.134.499.183.105.904.702.658.838-.737.435-3.204-3.75-3.906-4.46-.466-.625-.997-1.688-1.867-1.714-.223.059-.361-.007-.506-.138-1.011-.61-2.96-3.349-4.032-2.909.066.716 1.39 1.26 1.692 2.067-.765-.414-1.198-1.304-2.066-1.606-.74-.21-1.751-1.123-2.471-.66.313.635 1.261.887 1.705 1.636-1.556-.458-3.103-1.67-4.687-1.32.115.504 1.919.623 2.436 1.271-.69-.4-9.583-.859-5.469.405-2.431.601-5.492.6-7.441 2.108.868.653 3.582-.7 4.888-.482-.334.372-1.556.496-1.462.967.105.257.475.114.734.084.946-.218 2.605-1.18 3.429-1.001-.506.559-7.741 4.07-4.278 3.489.615-.108 1.802-.868 2.272-.642.092 1.335 2.694-1.553 3.384-1.366-.447.625-1.849.962-1.727 1.87.164.213.346.023.494-.068 2.031-1.137 3.852-2.3 6.145-2.975-.887.817-1.797 1.243-2.679 2.02-.342.126-3.702 3.995-2.067 3.007.913-.774 1.994-1.306 2.937-2.038.07-.056.162-.105.297-.007-1.413.812-2.541 3.314-.117 1.125-.854 1.9.747.431 1.493.059-.271.337-.777 1.041.064.885.601.018 1.792-1.288 2.167-.941.304.994 2.291-.852 3.044-.824-.714.969-3.513 1.84-3.152 3.213.629.204 1.095-.763 1.696-.695-.512 1.542 1.121-.332 1.721 0-.197.351-.838.639-.586 1.044.15.15.281.014.415-.07.477-.302 1.011-.464 1.554-.614.089.36-.522.44-.286.791.449.396.889-.545 1.327-.271-.36.262-.999.744-.131.763 1.069.585-2.08.213-2.343.218-3.805-.286-7.537 1.549-10.507 3.793-.285.44-1.149.697-1.142 1.222.131.276.339-.094.599-.017-1.242.585-5.616 4.83-1.713 2.366l.077.092c-1.13 1.13-2.335 2.78-2.384 4.355.905-.504 1.296-1.772 2.27-2.41-.536 1.19-1.292 2.206-1.432 3.559-.082.442-.068.966-.314 1.294-.988 1.292-1.963 2.626-2.45 4.198-.045.134-.098.3.049.389.332.482-.693 1.472-.784 2.08-.732 1.844-1.341 4.24.524.903-.43 1.411-.676 2.839-.622 4.344 0 .15-.094.362.11.405.243.051.255-.197.276-.351.297-1.957 1.123-3.764 1.928-5.554.253 1.173-.557 2.663-.082 3.712.953-1.59.836-3.805 1.758-5.542.388 1.622-1.828 4.924-.204 6.174.606-1.915.662-3.953 1.533-5.855.793.87.211 2.323.91 3.065.899-1.495.206-3.948.843-5.518-.017.962.508 1.82.405 2.782-.014.13-.033.323.152.347.634-.358.201-1.364.547-1.999.831 4.945 1.554-.582 1.814-2.18.587 3.332 1.067.577 1.287-.937.494.76.213 1.585.487 2.383.477 1.148.94-2.61 1.137-2.783.332 3.192.924 1.584 1.17-.52.48 1.13.435-.517.924-.514.351-.033.571.353.279.582-2.167 3.07 3.838-2.258 4.594-2.272-1.622 1.863-4.887 2.967-5.467 5.44.115.08.213-.013.286-.093.599-.52 1.282-1.142 2.082-1.228-.779.608-1.507 1.214-2.022 2.073-.587 1.563 2.933-2.07 3.429-2.136-.927 1.568-3.066 2.373-2.939 4.422.245 1.129 1.727-1.256 2.307-1.39-.239.997-2.242 2.98-1.556 4.161.961-1.184 1.767-2.827 3.07-3.842-.889 2.127-3.019 3.625-3.089 6.052.002.168-.052.4.14.46.382.108.237-.521.576-.493-.087.302-.391 1.972.255 1.149.316-.69.391-1.472.854-2.116-.054 1.306-.709 2.605-.295 3.98.059.291.04.785.365.766.571-.309.087-1.675.607-2.275.056 1.746.5 3.932 1.832 5.065.512-.567-.173-2.041.033-2.874 1.32.91.063-1.362.435-1.93.526.844.583 1.696 1.273 2.393.805.609.475-.854.332-1.23-.025-.2-.416-.541.192-.525.267-.419.113-1.186-.028-1.683-.061-.15-.192-.297-.047-.545.351.347 2.184 3.995 2.35 2.476-.499-2.937-3.464-5.02-3.66-8.1 1.542 1.288 1.739 4.045 3.494 5.046.608-.922-.674-2.01-.548-3.1.587.605.686 1.382 1.308 1.944 1.17 1.048.323-1.102.237-1.591-.117-1.547-1.21-2.76-1.522-4.19.443.125 1.491 2.755 1.828 1.76-.047-1.72-1.343-3.166-1.526-4.771.632.859 2.771 5.485 2.123 1.704.758 1.472 1.678 1.34.889-.295-.04-.091-.108-.286-.014-.283 1.334-.342-1.615-5.083-1.081-6.18.489 1.408 1.144 2.836 2.017 4.123 1.222 1.408-1.315-5.182-1.067-5.717.821.709.852 2.157 1.765 2.632.215-.072.07-.23.044-.353-.178-.847-.066-1.687.009-2.61.686 2.542 1.865 4.847 1.823 7.477.005.164.035.47.29.326.525-.47 1.149 3.576 1.325 4.05 1.383 5.94 2.127 12.043 2.399 18.126-.276 12.564 1.816 25.466-1.25 37.787-.391-1.599-1.072-3.115-1.149-4.774.002-.148.035-.372-.175-.379-.597.66-.134 2.239-.398 3.168-.56 2.462.538 4.987.182 7.447.178-2.773-1.172-3.869-2.235-6.15-.037-.134.028-.386-.192-.354-.472 2.605.075 5.451.773 8.069-1.517-1.668-3.05-3.187-5.123-4.006-.367-.18-.676.194-.206.353.707.557 1.25 1.472 1.456 2.282-.131.243.007.374.175.515.169.201.553.391.553.664-.476.183-1.089-.414-1.646-.351-1.539-.072-3.061.3-4.603.185-.124.012-.262.042-.299.183.395.962 1.973.831 2.406 1.867.03.087.159.152.255.197 1.921 1.034 4.107 1.14 6.238 1.076 1.636-.039 2.759 1.449 4.444 1.208.695.136 1.367-.391 2.039-.075.758.33 1.467.243 2.122-.257 1.985-.674 2.935.975 6.365-.646 4.215-1.402 4.669-2.963-.327-1.369-.021-.403 6.627-5.284 5.085-5.076-1.4.774-3.185.522-4.432 1.568-.443.346-.361-.204-.08-.396 4.636-5.015-.005-1.322-2.462-.44 1.463-2.452 2.439-4.872 3.632-7.43.164-.182-.112-.407-.269-.227-2.13 2.249-4.65 4.121-6.318 6.829-.316-1.29.95-2.317.865-3.67-1.401-2.424-1.373-5.307-1.769-8.003l-.063.103c-.697-12.164.096-24.483-1.495-36.62-.356-3.325-.962-6.63-1.945-9.83-.985-3.024-1.034-2.676.049-5.694.159.128.108.252.084.36-.294 2.743-.451 5.658 1.285 1.093.269 1.217-.697 2.305-.529 3.484.56.965.894-.947 1.182-1.32.103 1.494-.629 2.87-.458 4.363.613 1.441 1.202-2.015 1.31-2.46.215.927-.672 2.144.044 2.757.782-.323.429-1.828 1.063-2.471.04.718-.878 4.895.571 2.733-.644 3.41-.782 4.744 1.336.796-.021 1.013-.943 2.49-.229 3.304.164.01.178-.162.199-.279.086-.475.33-.875.606-1.333.166.744-.344 1.39.096 2.11.278.44.381-.468.589-.624.195.749-.075 1.317-.138 1.626.894.18 1.805.194 2.696-.066.4-.117.779-.28 1.142-.48.054-1.373.08-2.747.087-4.12-.115.082-.199.06-.253-.197-.232-1.083-.796-2.031-1.252-3.023-.47-.66.375-.62.04-1.267-.274-1.102-1.65-1.624-1.411-2.857-.063-1.907-1.886-3.644-3.075-5.08-.326-.211-.162-.595.161-.253.751.15.129-1.587.637-1.987.494.824.264 2.516 1.125 2.89.241.075.225.87.63.768.304-.166.019-.54.236-.815 1.526 6.544 1.196-1.107 1.194-3.026.185.595 0 7.854 1.254 5.151-.257 1.056.676 3.562.931 1.107.143.375.326 1.982.883.901.17.697.168 2.03.936 2.038.346-.075.206.539.559.443.176-.047.18-.209.147-.349-.177-1.147-.18-2.3-.156-3.442.737 1.462.713 2.906 1.312 4.324.213-.093.424-.19.637-.28-.03-.438-.335-.791-.131-1.236.166.372.328.728.487 1.081.414-.192.833-.36 1.252-.543a4.773 4.773 0 0 0-.155-.784c1.716.896-.978-3.484-.915-3.906.082-.753-.391-1.219-.671-1.788-.412-.697-.307-1.553-.855-2.202-.191-.648-1.757-1.502-1.294-2.096.106-.085.003-.284.162-.382 1.535 1.858.519-1.147.147-1.78.817 1.01 1.276 2.239 2.116 3.182 1.203.667.259-.971.044-1.404.676.444 1.119 1.858 2.022 1.687.183-.161.063-.349-.037-.51-.927-1.243-1.259-2.797-2.099-4.093-.122-.185-.319-.384-.246-.742 1.294 1.404 1.947 3.29 3.402 4.554 1.381 1.093-.376-2.137-.582-2.492.945.561 1.427 2.588 2.37 2.684.316-1.858-2.38-4.152-3.206-5.874 1.435 1.484 2.818 3.05 3.733 4.92.215.392.667 1.263 1.2 1.047-.168-1.113-1.036-2.277-1.563-3.341.508-.01 1.963 2.05 2.523 1.82.124-1.502-1.781-2.298-2.125-3.704 1.57 1.79 3.03 3.407 5.062 4.673.257.461.671.14.496-.288Zm642.04 9.106c-.13-1.025-.99-1.573-1.51-2.378 3.88 1.685-2.07-2.901-2.98-3.107.82-.136 1.53.646 2.19.252.11-.243-1.71-.983-2.04-1.294-1.18-.274-2.28-.91-3.51-.95-.11.007-.24.026-.35-.178 3.72-.051-.59-1.027-1.76-.922-2.57-.444-5.15.26-7.75.087-1.82.218-3.68.402-5.48.737-1.59.218-3.36 1.624-4.78.421.65-.276 3.18.4 3.07-.395-.2-1.06 2.06.477 1.56-.943.47-.05.72.41 1.17.376 1.17-.238-.83-1.142-1.08-1.65.87-.067 2.71 1.515 3.2.916.19-.674-.97-.817-1.28-1.271.77.306 1.56.533 2.26.985.12.077.24.215.37.066-.08-1.037-2.29-1.63-3.03-2.203 2.01.412 3.7 1.412 5.49 2.27.16.122.37.31.53.094.32-.365-.54-.562-.28-.791.65-.606-1.33-1.207-1.74-1.568.71-.12 3.65 1.074 1.55-.435.28-.218 1.25.11.76-.442-1.73-1.135-3.82-1.41-5.79-1.84 1.64-.26 3.27-.55 4.9-.828.11-.035.27-.059.24-.23-.79-.407-1.98-.194-2.9-.386-.01-.04-.01-.08-.01-.12 1.36-.306 2.55-1.12 3.93-1.34.14-.024.38.07.36-.166-.31-.447-2.97.019-3.57.014 1.45-.826 3.32-.41 4.47-1.779.68-.587-1.06-.271-1.43-.491 2.48-.885 1.37-.763-.41-.756 1.55-.845 3.68-.744 5.01-1.692-.74-.395-1.92.035-2.79.002-3.25.344-6.01 2.172-8.74 3.831a55.737 55.737 0 0 0-4.66 3.405c-.5.258-1.15-.255-1.74-.196.25-.312 4.23-1.294 2.9-1.435-.54-.007-1.08-.002-1.62-.002.62-.335 1.75-.106 2.12-.693-.07-.346-.54 0-.76-.232.56-.145 1.13-.191 1.64-.419.2-.088.6.061.58-.217-.01-.241-.41-.045-.62-.18 1.29-1.035-1.71-.351-2.15-.89 1.03-.196 6.87-.781 2.81-1.511 5.73-1.477 2.42-1.784-1.04-.958 1.42-.627 3.22-.847 4.53-1.486-.54-.42-1.53-.13-2.29-.098.38-.44.95-.234 1.37-.622.49-.216.25-.747-.25-.578-.21.023-.39.2-.66.098 1.98-1.477 2.51-2.66-.31-.997.68-2.439-1.14.356-1.95.48.05-.595 1.15-.829.13-1.09-.07-.024-.16 0-.2-.134.45-.445 1.74-.358 1.92-.775-.19-.353-.78-.014-1.11-.222.06-.115.17-.246.14-.33-.28-.917 1.15-.562 1.43-1.1-.35-.454-1.27-.094-1.78-.044-1.28-.04 2.91-1.964 2.69-2.458-1.34-.566-2.81.831-4.05 1.339-.11-.763.97-1.107 1-1.739-1.5-.047-2.31 1.697-3.22 2.86.13-2.506-.37-1.877-1.14-.115-.22-.239.08-.56-.21-.72-.18-.073-.29.086-.39.203-.87.99-.68 2.312-.96 3.576-.2-.276-.09-.61-.36-.854-.15.688-.27 1.324-.29 1.984-.27-.978.36-2.324-.22-3.14-.82.25-.64 1.666-.91 2.359-.22-.155-.19-.377-.25-.564-.06-.396-.52-.42-.5.016-.43 1.434.13 2.885-.06 4.301-.19-.278.09-.824-.36-.882-1.28 1.004.14 3.253 0 4.664-.92-2.864-.93.915-.88 1.86.08.242-.3.422-.3.101.23-1.175-.57-2.209-.2-3.506 0-.154.25-.358.01-.444-.32-.112-.25.419-.47.482-.01-.824.66-2.415-.14-3.01-.4.07-.03.485-.37.681-.07-.542-.28-3.46-.62-3.486-.34-.005-.23.341-.26.556-.07.223.13.637-.18.712-.64-.234-.25-1.33-.52-1.88-.03-.175-.02-.425-.27-.44-.59.28-.22 1.772-.38 2.395-.5-.925-.53-4.266-1.27-4.748-.45.206-.11.896-.16 1.287-.4-1.248-.66-.913-.64.185-.59-1.14-.01-3.101-1.18-3.845-.56.208-.1.755-.45 1.252-.2-.847-1.35-4.533-1.43-1.819-.65-.522-1.21-2.038-2.22-1.696-.14.206.02.35.16.484.74.85 1.34 1.97 1.81 2.909-.92-.887-2.61-1.835-1.09.21.3.869 1.15 1.248 1.57 1.978-.73-.206-1.46-1.355-2.22-.934.09.875 2.43 1.606 2.99 2.832-.6-.164-1.68-1.018-2.14-.927-.03.54.76 1.484 1.32 1.739.38.187 1.02.41 1.1.868-.2.267-1.06.028-.53.632.47.496.72 1.158 1.32 1.626-.36.068-.67-.243-.92.061-.23.342.4.426.33.737-.19.225-.46-.105-.71-.032-.24.053-.44.199-.22.407.6.856 1.5.838 2.4 1.378-1.55.094-.27.356.12.833-.49.218-1.01-.484-1.35-.07.97.976 2.83 1.133 3.66 2.47-.7.14-1.47-1.002-2.09-.513.03.716 2.05 1.553 2.07 2.232-.15.017-.21-.091-.31-.138-.39-.276-.76.262-.29.447.8.428 1.12 1.388 2.05 1.76-.53.222-.77-.122-1.24-.108-.4-.084-.52.377-.13.499.18.105.9.704.66.84-.74.435-3.2-3.75-3.91-4.46-.46-.625-.99-1.688-1.86-1.714-.23.059-.36-.007-.51-.138-1.01-.61-2.96-3.349-4.03-2.909.06.717 1.39 1.26 1.69 2.067-.77-.414-1.2-1.304-2.07-1.605-.74-.211-1.75-1.124-2.47-.66.32.634 1.26.886 1.71 1.635-1.56-.458-3.1-1.67-4.69-1.32.12.504 1.92.623 2.44 1.271-.69-.4-9.59-.859-5.47.405-2.43.602-5.49.6-7.44 2.109.86.652 3.58-.7 4.89-.483-.34.372-1.56.497-1.47.967.11.257.48.115.74.084.94-.218 2.6-1.18 3.43-1.001-.51.559-7.74 4.07-4.28 3.489.62-.108 1.8-.868 2.27-.641.09 1.334 2.7-1.554 3.39-1.367-.45.625-1.85.962-1.73 1.87.16.213.35.023.49-.068 2.03-1.137 3.85-2.298 6.15-2.974-.89.816-1.8 1.242-2.68 2.02-.34.125-3.7 3.994-2.07 3.006.92-.774 2-1.306 2.94-2.038.07-.056.16-.105.3-.007-1.42.812-2.54 3.314-.12 1.126-.85 1.9.75.43 1.49.058-.27.335-.77 1.041.07.885.6.018 1.79-1.287 2.16-.941.31.995 2.29-.852 3.05-.824-.72.969-3.52 1.84-3.15 3.213.62.204 1.09-.763 1.69-.695-.51 1.542 1.12-.332 1.72-.002-.19.35-.83.639-.58 1.044.15.147.28.014.41-.07.48-.302 1.01-.464 1.56-.614.09.36-.52.44-.29.791.45.396.89-.545 1.33-.271-.36.262-1 .744-.13.763 1.07.585-2.08.213-2.34.22-3.81-.286-7.54 1.549-10.51 3.793-.29.44-1.15.697-1.14 1.222.13.276.33-.094.59-.017-1.24.585-5.61 4.83-1.71 2.366.03.03.05.061.08.092-1.13 1.13-2.34 2.78-2.39 4.355.91-.504 1.3-1.772 2.27-2.41-.53 1.19-1.29 2.204-1.43 3.559-.08.442-.07.969-.31 1.294-.99 1.292-1.97 2.626-2.45 4.198-.05.134-.1.3.05.389.33.482-.7 1.472-.79 2.08-.73 1.844-1.34 4.24.53.903-.44 1.412-.68 2.84-.63 4.344 0 .15-.09.363.11.405.25.051.26-.197.28-.351.3-1.957 1.12-3.763 1.93-5.554.25 1.173-.56 2.663-.08 3.712.95-1.59.83-3.805 1.75-5.542.39 1.622-1.82 4.924-.2 6.174.61-1.915.66-3.953 1.53-5.855.8.87.21 2.323.91 3.065.9-1.495.21-3.948.85-5.518-.02.962.5 1.82.4 2.783-.01.128-.03.323.16.346.63-.358.2-1.364.54-1.999.83 4.945 1.56-.582 1.82-2.18.59 3.332 1.06.577 1.28-.937.5.76.22 1.585.49 2.38.48 1.15.94-2.61 1.14-2.782.33 3.192.92 1.584 1.17-.52.48 1.13.43-.517.92-.515.35-.032.57.354.28.583-2.17 3.07 3.84-2.258 4.6-2.272-1.63 1.863-4.89 2.967-5.47 5.44.11.08.21-.013.28-.093.6-.52 1.29-1.142 2.09-1.228-.78.61-1.51 1.214-2.02 2.073-.59 1.563 2.93-2.071 3.42-2.137-.92 1.568-3.06 2.373-2.94 4.423.25 1.128 1.73-1.257 2.31-1.39-.24.997-2.24 2.98-1.55 4.161.96-1.184 1.76-2.827 3.07-3.843-.89 2.128-3.02 3.625-3.09 6.052 0 .169-.05.4.14.461.38.108.23-.522.57-.494-.08.302-.39 1.973.26 1.15.31-.69.39-1.472.85-2.116-.05 1.306-.71 2.605-.29 3.98.06.29.04.787.36.768.57-.309.09-1.675.61-2.275.05 1.746.5 3.932 1.83 5.065.51-.567-.17-2.04.04-2.874 1.32.91.06-1.362.43-1.93.53.844.58 1.696 1.28 2.393.8.609.47-.854.33-1.23-.03-.202-.42-.541.19-.525.27-.419.11-1.186-.03-1.682-.06-.15-.19-.298-.04-.546.35.347 2.18 3.995 2.35 2.476-.5-2.937-3.47-5.02-3.66-8.1 1.54 1.288 1.73 4.045 3.49 5.046.61-.922-.67-2.01-.55-3.1.59.606.69 1.382 1.31 1.944 1.17 1.049.32-1.102.24-1.591-.12-1.547-1.21-2.76-1.53-4.187.45.124 1.5 2.755 1.83 1.76-.04-1.72-1.34-3.166-1.52-4.772.63.86 2.77 5.486 2.12 1.704.76 1.472 1.68 1.339.89-.295-.04-.091-.11-.285-.02-.283 1.34-.342-1.61-5.083-1.08-6.18.49 1.408 1.15 2.834 2.02 4.123 1.22 1.409-1.31-5.181-1.07-5.717.82.709.86 2.158 1.77 2.633.21-.073.07-.23.04-.354-.18-.847-.06-1.687.01-2.61.69 2.542 1.87 4.847 1.82 7.478.01.164.04.47.29.325.53-.47 1.15 3.576 1.33 4.051 1.38 5.94 2.13 12.045 2.4 18.125-.28 12.564 1.81 25.466-1.25 37.787-.39-1.598-1.07-3.115-1.15-4.774 0-.147.04-.372-.17-.379-.6.66-.14 2.24-.4 3.169-.56 2.462.54 4.987.18 7.446.18-2.773-1.17-3.868-2.23-6.15-.04-.133.02-.388-.2-.353-.47 2.604.08 5.45.78 8.069-1.52-1.669-3.05-3.19-5.13-4.007-.36-.18-.67.195-.2.354.7.557 1.25 1.472 1.45 2.281-.13.244.01.375.18.515.17.202.55.391.55.665-.48.182-1.09-.414-1.65-.351-1.54-.073-3.06.299-4.6.185-.12.011-.26.042-.3.182.4.962 1.97.831 2.41 1.868.03.086.16.152.25.196 1.92 1.035 4.11 1.14 6.24 1.077 1.64-.04 2.76 1.448 4.44 1.207.7.136 1.37-.39 2.04-.075.76.33 1.47.244 2.13-.257 1.98-.674 2.93.976 6.36-.646 4.22-1.402 4.67-2.96-.33-1.369-.02-.402 6.63-5.284 5.09-5.076-1.4.775-3.19.522-4.43 1.568-.45.347-.36-.203-.08-.395 4.63-5.015-.01-1.323-2.47-.44 1.47-2.453 2.44-4.873 3.64-7.43.16-.183-.12-.408-.27-.227-2.13 2.249-4.65 4.121-6.32 6.828-.32-1.289.95-2.317.86-3.669-1.4-2.425-1.37-5.308-1.76-8.004-.03.035-.05.071-.07.103-.69-12.164.1-24.483-1.49-36.62-.36-3.325-.96-6.629-1.95-9.83-.98-3.024-1.03-2.675.05-5.694.16.129.11.253.09.36-.3 2.743-.46 5.659 1.28 1.093.27 1.217-.7 2.305-.53 3.487.56.964.9-.948 1.18-1.32.11 1.493-.63 2.87-.46 4.362.62 1.442 1.21-2.015 1.32-2.46.21.928-.68 2.144.04 2.758.78-.323.43-1.828 1.06-2.472.04.719-.88 4.896.57 2.734-.64 3.41-.78 4.743 1.34.795-.02 1.014-.94 2.49-.23 3.305.16.01.18-.162.2-.279.09-.475.33-.875.61-1.334.16.745-.35 1.39.09 2.111.28.44.38-.468.59-.625.2.75-.07 1.318-.14 1.627.9.18 1.81.194 2.7-.066.4-.117.78-.28 1.14-.48.05-1.373.08-2.747.09-4.12-.12.081-.2.06-.26-.197-.23-1.084-.79-2.031-1.25-3.024-.47-.66.38-.62.04-1.266-.27-1.1-1.65-1.624-1.41-2.857-.06-1.907-1.88-3.644-3.07-5.08-.33-.211-.17-.595.16-.254.75.15.13-1.586.63-1.986.5.823.27 2.515 1.13 2.89.24.075.22.87.63.767.3-.168.02-.54.24-.814 1.52 6.543 1.19-1.107 1.19-3.026.18.595 0 7.854 1.25 5.151-.25 1.055.68 3.562.93 1.107.15.374.33 1.982.89.9.17.698.17 2.03.93 2.04.35-.076.21.535.56.441.18-.046.18-.208.15-.348-.18-1.147-.18-2.3-.16-3.443.74 1.465.72 2.907 1.32 4.325.21-.094.42-.19.63-.28-.03-.438-.33-.792-.13-1.236.17.372.33.727.49 1.08.41-.191.83-.36 1.25-.542a4.4 4.4 0 0 0-.16-.784c1.72.896-.98-3.485-.91-3.906.08-.754-.39-1.22-.68-1.788-.41-.697-.3-1.554-.85-2.202-.19-.648-1.76-1.502-1.29-2.094.1-.085 0-.284.16-.382 1.53 1.858.52-1.147.15-1.78.81 1.01 1.27 2.239 2.11 3.182 1.2.667.26-.971.04-1.404.68.447 1.12 1.858 2.03 1.687.18-.161.06-.349-.04-.51-.93-1.245-1.26-2.797-2.1-4.093-.12-.187-.32-.384-.25-.742 1.3 1.404 1.95 3.29 3.41 4.554 1.38 1.093-.38-2.137-.59-2.492.95.561 1.43 2.588 2.38 2.684.31-1.858-2.38-4.151-3.21-5.874 1.43 1.484 2.82 3.05 3.73 4.92.22.392.67 1.263 1.2 1.048-.17-1.117-1.03-2.278-1.56-3.342.51-.01 1.96 2.05 2.52 1.82.13-1.502-1.78-2.298-2.12-3.704 1.57 1.79 3.03 3.407 5.06 4.673.23.45.64.129.47-.297Zm274.9-25.976c.11-1.269-.77-1.947-1.18-2.947 4.15 2.097-1.69-3.596-2.71-3.852 1-.163 1.64.806 2.52.319.18-.3-1.77-1.22-2.07-1.608-1.33-.344-2.46-1.133-3.9-1.184-.13.01-.3.033-.37-.22 4.4-.052-.43-1.27-1.84-1.144-2.92-.56-6.15.304-9.16.082-2.21.264-4.44.486-6.66.893-1.93.265-4.38 1.999-5.75.506.84-.34 3.65.505 3.73-.48.03-1.313 2.3.597 2.08-1.163.57-.06.74.508 1.28.47 1.44-.29-.69-1.415-.85-2.043 1.04-.079 2.81 1.882 3.54 1.145.4-.833-.93-1.013-1.19-1.575.83.381 1.71.665 2.42 1.224.12.093.23.267.41.084.18-1.282-2.28-2.02-3-2.736 2.26.515 4 1.758 5.9 2.825.15.152.35.384.6.117.47-.452-.5-.697-.14-.978.93-.747-1.25-1.498-1.64-1.945.86-.145 4.03 1.341 1.94-.536.38-.269 1.45.14 1.01-.543-1.75-1.409-4.14-1.755-6.36-2.293 2.01-.316 4.01-.67 6-1.011.15-.045.33-.07.34-.283-.83-.506-2.28-.248-3.32-.487 0-.05.01-.098.01-.148 1.69-.374 3.3-1.378 4.99-1.645.17-.03.43.087.47-.206-.25-.552-3.51.015-4.22.008 1.92-1.016 4.02-.497 5.73-2.186.95-.723-1.18-.34-1.56-.613 3.16-1.089 1.81-.941-.29-.936 2.04-1.04 4.53-.908 6.34-2.079-.76-.491-2.27.036-3.29-.007-3.92.417-7.65 2.668-11.29 4.709a88.156 88.156 0 0 0-6.39 4.198c-.65.319-1.28-.318-1.99-.248.37-.384 5.33-1.589 3.79-1.767-.64-.01-1.28-.007-1.91-.01.81-.411 2.09-.123 2.67-.85.01-.43-.63-.003-.83-.289.7-.178 1.38-.234 2.04-.512.27-.11.69.077.75-.27.05-.297-.48-.055-.69-.224 1.79-1.275-1.93-.44-2.31-1.107 1.27-.241 8.31-.945 3.71-1.86 7.13-1.807 3.3-2.198-.98-1.19 1.83-.771 4.02-1.036 5.72-1.825-.53-.521-1.77-.168-2.67-.128.55-.543 1.17-.286 1.77-.765.64-.265.49-.925-.14-.719-.26.028-.52.248-.8.12 2.71-1.821 3.64-3.286-.12-1.236 1.44-3.014-1.44.437-2.42.587.21-.735 1.57-1.023.43-1.35-.07-.03-.19-.003-.19-.166.63-.55 2.14-.436 2.45-.953-.12-.437-.91-.019-1.24-.278.09-.143.26-.304.24-.407-.09-1.138 1.51-.693 1.97-1.355-.29-.564-1.46-.12-2.08-.061-1.5-.052 3.93-2.42 3.8-3.03-1.43-.705-3.52 1.017-5.12 1.64.07-.946 1.43-1.365 1.63-2.149-1.75-.063-3.16 2.09-4.53 3.527.79-3.1.04-2.321-1.32-.145-.19-.295.24-.69-.06-.892-.19-.091-.37.108-.51.25-1.28 1.225-1.41 2.86-2.05 4.419-.18-.344.04-.756-.22-1.058-.35.852-.65 1.638-.84 2.453-.07-1.212 1.02-2.874.55-3.885-1.04.307-1.19 2.057-1.69 2.914-.21-.192-.12-.468-.14-.7.02-.49-.52-.52-.59.019-.88 1.774-.59 3.568-1.19 5.319-.15-.344.32-1.02-.19-1.093-1.78 1.238-.67 4.025-1.2 5.77-.35-3.544-1.33 1.129-1.52 2.299.03.297-.47.522-.37.124.56-1.453-.12-2.736.66-4.336.04-.19.38-.443.12-.55-.34-.14-.4.517-.67.594.19-1.018 1.4-2.986.61-3.723-.49.086-.16.601-.62.84.06-.674.57-4.28.16-4.315-.39-.007-.36.42-.44.688-.14.276-.02.786-.4.88-.69-.293.05-1.646-.12-2.327.01-.217.08-.528-.21-.545-.77.342-.72 2.19-1.07 2.96-.34-1.144.48-5.279-.28-5.876-.57.253-.35 1.11-.51 1.594-.15-1.545-.55-1.13-.8.225-.4-1.412.79-3.836-.41-4.76-.72.257-.31.936-.85 1.547-.02-1.049-.42-5.61-1.22-2.254-.63-.648-.91-2.525-2.18-2.106-.22.252-.07.433.06.599.65 1.053 1.08 2.44 1.39 3.604-.86-1.103-2.61-2.277-1.34.255.13 1.076 1.04 1.544 1.34 2.45-.8-.257-1.37-1.683-2.37-1.16-.12 1.083 2.45 1.993 2.79 3.51-.66-.206-1.72-1.264-2.28-1.152-.17.67.51 1.84 1.11 2.155.4.235 1.1.51 1.07 1.08-.3.33-1.26.032-.79.779.43.615.55 1.437 1.15 2.014-.45.085-.73-.304-1.11.073-.36.421.37.529.2.913-.28.278-.52-.131-.82-.045-.3.066-.57.246-.37.503.49 1.063 1.56 1.042 2.47 1.713-1.85.113-.4.44-.06 1.03-.64.267-1.07-.601-1.58-.091.89 1.21 3.04 1.409 3.69 3.068-.87.173-1.49-1.243-2.34-.639-.15.887 2.01 1.928 1.86 2.768-.17.02-.23-.112-.33-.17-.39-.344-.96.323-.46.552.84.534.96 1.72 1.97 2.183-.68.272-.88-.152-1.43-.138-.45-.105-.71.464-.28.616.19.13.88.873.56 1.039-.98.533-2.82-4.648-3.46-5.53-.39-.775-.75-2.092-1.77-2.125-.27.072-.42-.012-.56-.173-1.03-.76-2.63-4.152-4.01-3.611-.1.885 1.32 1.56 1.47 2.562-.8-.517-1.08-1.617-2.03-1.991-.82-.262-1.78-1.395-2.74-.824.2.786 1.25 1.1 1.59 2.03-1.72-.572-3.24-2.077-5.19-1.648 0 .622 2.1.776 2.54 1.577-.71-.499-11.08-1.093-6.55.482-3.03.735-6.64.723-9.32 2.583.85.81 4.4-.854 5.89-.58-.49.461-1.96.609-1.98 1.191.06.319.54.145.85.108 1.17-.267 3.38-1.45 4.3-1.229-.74.69-10.18 5.008-5.94 4.304.75-.131 2.35-1.07 2.84-.786-.23 1.652 3.58-1.915 4.35-1.68-.69.77-2.43 1.184-2.52 2.307.14.262.4.03.6-.084 2.69-1.402 5.14-2.832 8.02-3.66-1.26 1.006-2.44 1.53-3.68 2.49-.44.154-5.4 4.928-3.21 3.711 1.27-.955 2.69-1.608 3.98-2.513.1-.068.22-.129.36-.007-1.88.999-3.85 4.09-.43 1.39-1.5 2.347.77.533 1.75.075-.41.414-1.19 1.284-.15 1.093.7.023 2.44-1.587 2.79-1.157.1 1.231 2.92-1.046 3.81-1.008-1.1 1.196-4.62 2.265-4.55 3.964.69.255 1.49-.94 2.18-.854-1 1.905 1.41-.407 2.03.005-.32.435-1.15.788-.96 1.29.14.184.33.018.51-.088.64-.372 1.31-.57 1.99-.753.01.445-.73.543-.54.976.43.489 1.19-.674 1.63-.332-.49.322-1.37.917-.34.943 1.11.725-2.52.255-2.82.262-4.42-.365-9.3 1.89-13.38 4.657-.45.54-1.53.86-1.66 1.507.08.342.43-.115.71-.019-1.61.72-7.87 5.956-2.63 2.92.02.038.05.076.07.113-1.63 1.392-3.47 3.43-3.94 5.38 1.2-.62 1.99-2.186 3.3-2.974-.94 1.472-2.09 2.724-2.6 4.397-.21.545-.33 1.196-.71 1.6-1.49 1.594-2.99 3.242-3.97 5.184-.08.166-.19.37-.04.48.27.597-1.19 1.818-1.46 2.57-1.34 2.279-2.67 5.242.39 1.12-.87 1.744-1.53 3.51-1.86 5.371-.03.187-.2.447.03.503.27.066.35-.24.42-.435.85-2.42 2.29-4.65 3.7-6.864 0 1.451-1.34 3.293-1.05 4.592 1.53-1.961 1.96-4.704 3.5-6.85.04 2.008-3.43 6.084-1.83 7.636 1.21-2.366 1.79-4.886 3.31-7.236.72 1.081-.34 2.874.29 3.794 1.45-1.847 1.26-4.882 2.41-6.822-.26 1.189.14 2.251-.23 3.442-.05.16-.12.4.09.429.84-.443.59-1.688 1.16-2.47-.29 6.12 1.98-.713 2.7-2.693-.17 4.124 1.11.719 1.76-1.151.39.94-.15 1.96-.04 2.946.27 1.423 1.78-3.222 2.06-3.438-.43 3.95.68 1.964 1.51-.639.28 1.4.65-.639 1.23-.636.42-.038.58.438.18.723-3.35 3.791 5.1-2.78 6-2.796-2.39 2.298-6.53 3.653-7.85 6.714.11.098.25-.017.36-.115.84-.641 1.81-1.407 2.78-1.514-1.08.751-2.1 1.497-2.92 2.558-1.1 1.933 3.99-2.554 4.59-2.633-1.5 1.935-4.23 2.925-4.61 5.462 0 1.395 2.36-1.55 3.08-1.713-.53 1.233-3.41 3.676-2.9 5.141 1.44-1.46 2.81-3.489 4.61-4.741-1.6 2.628-4.5 4.474-5.21 7.475-.04.208-.16.493.05.57.42.136.41-.643.81-.61-.18.372-.97 2.44 0 1.423.55-.852.84-1.821 1.55-2.614-.4 1.614-1.5 3.22-1.37 4.923-.01.358-.15.972.23.95.76-.38.54-2.07 1.3-2.81-.38 2.158-.42 4.865.86 6.27.75-.7.32-2.526.78-3.555 1.32 1.13.43-1.685 1.01-2.387.4 1.046.25 2.099.89 2.965.79.756.78-1.056.7-1.524.02-.248-.35-.671.37-.648.42-.517.43-1.465.4-2.08-.04-.185-.15-.37.08-.675.33.431 1.55 4.95 2.14 3.07.16-3.633-2.8-6.22-2.24-10.03 1.49 1.597 1.01 5.009 2.82 6.254.96-1.14-.27-2.488.16-3.838.53.751.45 1.713 1.04 2.41 1.11 1.302.67-1.362.69-1.968.26-1.914-.72-3.416-.72-5.186.49.155 1.05 3.412 1.71 2.181.38-2.127-.77-3.92-.57-5.909.52 1.065 1.85 6.794 2.06 2.116.52 1.823 1.64 1.661 1.13-.363-.03-.112-.06-.353.05-.349 1.66-.419-.59-6.292.32-7.65.21 1.746.62 3.51 1.32 5.109 1.08 1.748-.22-6.412.21-7.074.79.88.45 2.672 1.4 3.262.28-.09.14-.283.15-.438 0-1.048.35-2.087.68-3.23.16 3.146.95 6.001.22 9.256-.03.204-.08.583.26.403.74-.58.44 4.425.52 5.015.1 7.353-.59 14.904-1.83 22.426-3.56 15.541-4.41 31.504-11.2 46.736-.05-1.977-.46-3.857-.12-5.909.03-.182.13-.461-.11-.47-.88.814-.73 2.771-1.29 3.917-1.29 3.045-.65 6.171-1.7 9.211.92-3.428-.38-4.79-1.05-7.612-.01-.167.13-.48-.14-.438-1.23 3.22-1.31 6.744-1.16 9.983-1.36-2.068-2.78-3.952-5.02-4.973-.38-.224-.84.239-.33.438.69.69 1.1 1.823 1.13 2.827-.22.302-.09.463.07.639.15.25.55.487.48.824-.6.224-1.17-.518-1.85-.44-1.79-.096-3.69.362-5.47.213-.15.014-.33.051-.4.227.22 1.191 2.11 1.034 2.35 2.316.02.108.15.188.25.246 2.01 1.285 4.56 1.423 7.09 1.35 1.94-.042 2.88 1.8 4.93 1.51.79.171 1.71-.478 2.43-.087.81.41 1.66.304 2.57-.311 2.51-.828 3.21 1.217 7.67-.777 5.34-1.72 6.27-3.648-.03-1.692.08-.498 9.18-6.515 7.3-6.262-1.85.954-3.89.636-5.63 1.923-.61.426-.37-.25.01-.489 6.76-6.19.34-1.636-2.79-.552 2.36-3.028 4.13-6.019 6.2-9.178.24-.225-.03-.504-.26-.281-3.09 2.775-6.55 5.083-9.21 8.427-.04-1.596 1.71-2.865 1.96-4.535-1.03-3.003-.25-6.569-.02-9.904-.04.042-.07.084-.11.129 2.31-15.05 6.41-30.285 7.66-45.302.44-4.114.57-8.205.24-12.164-.39-3.745-.54-3.312 1.52-7.044.16.159.06.31.01.444-1.06 3.391-1.99 6.997 1.23 1.355.01 1.507-1.42 2.85-1.52 4.31.41 1.197 1.3-1.17 1.73-1.628-.26 1.849-1.48 3.545-1.66 5.394.35 1.786 1.94-2.487 2.18-3.037.02 1.146-1.34 2.649-.66 3.41 1.01-.398.98-2.261 1.89-3.055-.13.887-2.29 6.052-.03 3.382-1.63 4.215-2.14 5.867 1.38.987-.29 1.255-1.76 3.078-1.13 4.087.19.011.26-.2.31-.345.22-.587.61-1.083 1.06-1.647 0 .92-.77 1.718-.43 2.612.21.543.57-.578.86-.773.03.93-.43 1.63-.59 2.01 1.01.225 2.08.246 3.2-.072.5-.143.99-.346 1.47-.587.42-1.7.8-3.398 1.16-5.097-.15.1-.24.072-.24-.244 0-1.34-.42-2.513-.7-3.744-.39-.82.6-.768.37-1.566-.04-1.362-1.53-2.014-.93-3.538.41-2.359-1.29-4.514-2.32-6.293-.33-.262-.04-.737.25-.311.85.19.56-1.961 1.26-2.455.37 1.02-.33 3.112.59 3.578.26.094.04 1.077.54.95.4-.206.16-.667.49-1.006.11 8.097 1.69-1.364 2.18-3.74.07.735-2.01 9.717.16 6.375-.57 1.304-.12 4.41.82 1.371.07.466-.13 2.455.81 1.117.02.861-.33 2.51.58 2.525.42-.094.1.665.54.55.22-.059.27-.258.27-.43.08-1.419.37-2.846.7-4.26.49 1.814.09 3.6.43 5.352.28-.117.55-.232.83-.346.07-.543-.19-.978.16-1.528.1.458.2.9.29 1.338.54-.234 1.08-.444 1.62-.667.03-.323.04-.646.02-.969 1.79 1.114-.26-4.313-.08-4.832.29-.931-.14-1.51-.33-2.214-.3-.863.04-1.924-.44-2.729-.06-.8-1.69-1.862-.99-2.595.15-.105.08-.349.29-.47 1.33 2.303.91-1.419.63-2.202.71 1.252.93 2.773 1.68 3.943 1.25.828.55-1.2.41-1.737.69.555.84 2.303 1.96 2.095.25-.199.16-.433.08-.632-.77-1.542-.76-3.461-1.42-5.071-.1-.232-.28-.475-.1-.918 1.17 1.741 1.45 4.077 2.84 5.645 1.35 1.355.11-2.644-.04-3.084.97.697 1.02 3.208 2.1 3.327.86-2.298-1.74-5.143-2.27-7.275 1.31 1.84 2.54 3.781 3.14 6.096.15.487.46 1.566 1.15 1.301.08-1.38-.64-2.822-.99-4.14.6-.01 1.79 2.542 2.51 2.26.53-1.857-1.51-2.847-1.55-4.588 1.39 2.218 2.69 4.224 4.76 5.796.16.597.73.202.64-.327ZM488.965 69.437c.164-.952-.601-1.474-.922-2.23 3.667 1.633-1.366-2.729-2.279-2.935.92-.11 1.453.627 2.279.274.183-.222-1.547-.94-1.804-1.238-1.193-.276-2.179-.885-3.491-.943-.117.005-.27.021-.321-.17 4.002.018-.335-.963-1.615-.886-2.63-.458-5.609.148-8.342-.058-2.02.169-4.065.309-6.101.585-1.772.173-4.079 1.446-5.251.304.781-.245 3.294.429 3.409-.31.094-.986 2.066.479 1.952-.848.522-.038.648.393 1.144.37 1.327-.2-.557-1.074-.674-1.55.95-.046 2.467 1.454 3.166.909.408-.62-.793-.775-.999-1.201.733.297 1.519.522 2.137.952.105.073.194.204.372.068.222-.962-1.978-1.551-2.598-2.097 2.034.417 3.55 1.374 5.223 2.205.131.117.298.295.541.096.447-.335-.424-.531-.077-.737.877-.55-1.065-1.142-1.4-1.486.794-.099 3.6 1.062 1.791-.377.36-.197 1.308.124.945-.396-1.519-1.083-3.676-1.373-5.668-1.809 1.84-.21 3.674-.449 5.502-.68.136-.031.311-.05.325-.209-.732-.39-2.066-.215-3-.41a2.15 2.15 0 0 1 .023-.11c1.557-.26 3.068-.992 4.622-1.172.152-.02.386.07.436-.147-.204-.42-3.19-.035-3.841-.052 1.805-.74 3.684-.32 5.324-1.568.896-.53-1.058-.271-1.39-.482 2.925-.777 1.694-.683-.215-.706 1.909-.754 4.165-.623 5.871-1.48-.671-.379-2.071-.002-2.993-.049-3.587.26-7.088 1.908-10.502 3.394a88.339 88.339 0 0 0-6.012 3.072c-.613.23-1.156-.257-1.804-.213.358-.283 4.923-1.123 3.535-1.277-.578-.017-1.16-.021-1.741-.03.766-.3 1.912-.066 2.481-.605.026-.322-.578-.009-.742-.229.644-.124 1.266-.159 1.882-.358.243-.08.622.068.69-.192.058-.222-.435-.049-.613-.18 1.687-.936-1.734-.356-2.055-.864 1.168-.163 7.606-.601 3.468-1.35 6.574-1.266 3.115-1.61-.833-.905 1.699-.558 3.705-.728 5.296-1.297-.454-.4-1.608-.15-2.427-.131.531-.4 1.081-.199 1.645-.552.599-.192.496-.688-.089-.54-.231.018-.482.18-.737.079 2.553-1.334 3.475-2.422-.042-.932 1.453-2.249-1.334.31-2.237.41.234-.55 1.479-.75.461-1.009-.063-.023-.173-.005-.168-.129.606-.405 1.972-.3 2.281-.685-.093-.33-.828-.026-1.118-.227.088-.106.25-.225.243-.302-.03-.857 1.402-.501 1.853-.992-.234-.429-1.324-.11-1.893-.073-1.359-.059 3.7-1.77 3.609-2.23-1.269-.548-3.258.718-4.739 1.168.108-.71 1.367-1.009 1.584-1.594-1.586-.07-2.974 1.53-4.294 2.593.875-2.322.152-1.746-1.194-.127-.159-.224.26-.517-.009-.671-.171-.07-.342.075-.477.182-1.224.904-1.418 2.132-2.085 3.298-.138-.26.077-.569-.143-.8-.356.636-.672 1.223-.887 1.834-.005-.913 1.067-2.148.69-2.916-.957.218-1.179 1.533-1.678 2.17-.184-.148-.088-.354-.098-.53.049-.367-.442-.397-.538.005-.885 1.323-.711 2.678-1.336 3.986-.12-.262.337-.763-.122-.824-1.678.908-.81 3.019-1.378 4.325-.143-2.673-1.269.83-1.5 1.708.018.225-.45.386-.344.089.585-1.086.03-2.06.814-3.253.049-.143.374-.327.145-.412-.306-.11-.393.384-.646.438.232-.763 1.423-2.228.742-2.794-.452.058-.18.449-.604.624.089-.505.723-3.213.363-3.243-.356-.01-.351.311-.442.512-.141.206-.049.593-.398.658-.623-.23.119-1.238-.002-1.75.021-.164.103-.396-.16-.412-.716.245-.765 1.638-1.123 2.214-.253-.866.695-3.965.04-4.426-.536.183-.382.831-.545 1.191-.059-1.163-.443-.858-.742.16-.295-1.068.908-2.874-.138-3.586-.665.185-.33.7-.845 1.152.033-.789-.11-4.227-1.004-1.711-.536-.496-.697-1.912-1.879-1.612-.206.187-.082.325.028.451.543.8.861 1.851 1.091 2.729-.735-.84-2.261-1.748-1.236.175.063.81.87 1.178 1.102 1.86-.718-.203-1.17-1.282-2.101-.905-.164.815 2.129 1.533 2.366 2.68-.595-.164-1.5-.974-2.022-.896-.19.5.379 1.39.908 1.635.353.18.971.4.922.826-.298.244-1.147.007-.761.576.361.468.431 1.088.943 1.533-.407.056-.643-.239-1.008.04-.344.311.308.402.14.688-.271.206-.466-.106-.747-.045-.273.045-.528.176-.362.375.398.805 1.369.805 2.167 1.322-1.688.058-.386.325-.11.774-.597.192-.943-.465-1.43-.09.753.921 2.698 1.1 3.204 2.356-.796.12-1.29-.955-2.097-.513-.176.665 1.736 1.477 1.558 2.109-.159.011-.199-.09-.29-.134-.339-.264-.894.23-.447.41.735.412.794 1.308 1.683 1.669-.627.196-.789-.127-1.29-.122-.407-.084-.671.34-.29.459.166.1.761.666.459.788-.92.389-2.331-3.533-2.876-4.205-.316-.587-.574-1.584-1.498-1.622-.257.052-.384-.014-.503-.138-.906-.585-2.188-3.157-3.468-2.768-.143.664 1.121 1.19 1.205 1.947-.7-.398-.901-1.231-1.743-1.526-.731-.209-1.547-1.074-2.458-.655.148.594 1.091.844 1.348 1.546-1.532-.451-2.836-1.605-4.64-1.308-.024.468 1.874.613 2.239 1.222-.622-.384-10.027-.969-5.986.276-2.784.512-6.068.456-8.604 1.82.739.62 4.05-.584 5.387-.36-.471.34-1.816.433-1.856.87.037.242.475.115.763.092 1.079-.185 3.14-1.046 3.976-.866-.707.508-9.506 3.635-5.619 3.16.69-.09 2.19-.773 2.626-.555-.298 1.238 3.348-1.393 4.034-1.208-.662.571-2.265.86-2.403 1.704.114.199.365.028.55-.054 2.515-1.018 4.811-2.062 7.472-2.647-1.194.742-2.296 1.119-3.471 1.826-.405.11-5.15 3.636-3.105 2.75 1.207-.703 2.525-1.175 3.751-1.838.094-.049.204-.093.321 0-1.755.728-3.705 3.026-.459 1.042-1.477 1.746.674.412 1.587.08-.391.306-1.142.95-.192.818.639.028 2.305-1.163 2.6-.833.032.927 2.71-.748 3.51-.709-1.053.885-4.311 1.643-4.329 2.92.613.202 1.399-.687 2.024-.612-1.006 1.42 1.301-.288 1.846.03-.316.323-1.088.578-.936.957.117.14.297.019.466-.058.601-.272 1.222-.412 1.846-.54-.011.334-.69.397-.538.727.367.374 1.116-.492 1.505-.23-.464.237-1.292.672-.365.705.973.562-2.296.16-2.579.161-3.997-.332-8.544 1.302-12.394 3.328-.437.403-1.439.627-1.586 1.112.061.257.393-.08.648-.005-1.505.522-7.451 4.376-2.537 2.162.019.029.038.059.054.087-1.547 1.028-3.325 2.535-3.842 3.995 1.118-.452 1.912-1.62 3.145-2.195-.927 1.095-2.039 2.022-2.586 3.274-.218.407-.358.896-.719 1.195-1.441 1.18-2.88 2.4-3.868 3.848-.086.124-.194.274-.061.36.216.452-1.177 1.353-1.455 1.914-1.332 1.697-2.689 3.909.295.848-.878 1.3-1.564 2.62-1.95 4.015-.044.14-.206.335-.002.38.246.053.33-.178.4-.321.896-1.81 2.315-3.468 3.707-5.113-.075 1.09-1.383 2.46-1.184 3.44 1.49-1.456 2.019-3.513 3.519-5.107-.06 1.512-3.412 4.533-2.04 5.72 1.214-1.765 1.877-3.65 3.372-5.401.594.821-.461 2.157.075 2.857 1.404-1.371 1.385-3.655 2.532-5.102-.3.892.007 1.697-.386 2.589-.052.119-.131.3.063.323.789-.321.618-1.262 1.177-1.842-.569 4.6 1.837-.513 2.588-1.99-.353 3.1.976.555 1.657-.844.307.714-.239 1.474-.18 2.216.175 1.074 1.778-2.401 2.04-2.558-.585 2.965.525 1.486 1.409-.46.183 1.055.62-.474 1.145-.462.386-.023.507.337.126.545-3.232 2.806 4.783-2.024 5.598-2.024-2.289 1.7-6.118 2.663-7.473 4.947.101.075.235-.009.335-.082.796-.472 1.713-1.034 2.598-1.102-1.016.552-1.975 1.1-2.78 1.886-1.093 1.44 3.756-1.867 4.308-1.919-1.458 1.437-3.99 2.146-4.461 4.049-.07 1.05 2.224-1.135 2.886-1.247-.55.92-3.283 2.721-2.897 3.83 1.38-1.078 2.728-2.588 4.425-3.505-1.582 1.956-4.308 3.307-5.099 5.556-.049.156-.176.37.014.43.377.108.407-.48.763-.447-.18.279-1.002 1.823-.066 1.07.543-.635.854-1.358 1.54-1.945-.442 1.21-1.53 2.403-1.491 3.686-.023.269-.189.728.164.716.705-.276.588-1.552 1.32-2.097-.456 1.62-.622 3.655.473 4.727.716-.515.416-1.895.884-2.663 1.147.868.471-1.261 1.037-1.783.316.79.124 1.582.662 2.242.684.578.761-.784.719-1.135.032-.185-.286-.51.36-.482.41-.384.468-1.098.466-1.561-.019-.14-.12-.281.11-.506.276.328 1.165 3.745 1.79 2.338.332-2.73-2.235-4.718-1.538-7.575 1.276 1.221.672 3.782 2.261 4.741.924-.845-.131-1.877.328-2.885.451.57.33 1.294.83 1.827.946.993.672-1.015.724-1.472.332-1.436-.485-2.579-.396-3.91.438.122.786 2.581 1.442 1.664.458-1.596-.508-2.96-.23-4.454.424.808 1.355 5.135 1.774 1.617.382 1.379 1.404 1.274 1.041-.257-.016-.087-.03-.267.068-.262 1.533-.293-.231-4.741.665-5.75.11 1.315.393 2.65.948 3.86.894 1.328.117-4.829.54-5.32.672.672.276 2.015 1.117 2.473.252-.063.142-.21.152-.327.058-.789.426-1.566.781-2.42-.011 2.368.571 4.526-.25 6.967-.042.152-.103.435.215.306.702-.425.178 3.335.225 3.78-.269 5.532-1.271 11.205-2.773 16.847-4.002 11.642-5.563 23.643-12.487 35.012.051-1.489-.232-2.907.175-4.447.045-.135.148-.344-.075-.355-.833.601-.802 2.073-1.362 2.93-1.324 2.272-.894 4.633-2 6.905 1.008-2.567-.115-3.608-.583-5.74-.003-.124.145-.358-.103-.332-1.276 2.405-1.528 5.054-1.552 7.495-1.135-1.575-2.333-3.012-4.315-3.807-.339-.173-.784.168-.325.323.594.529.905 1.387.889 2.143-.213.225-.103.347.035.482.122.19.478.373.396.628-.562.161-1.046-.405-1.662-.356-1.629-.096-3.372.222-4.994.089-.135.007-.292.035-.374.164.143.898 1.872.807 2.031 1.773.007.08.126.143.215.188 1.755.992 4.07 1.13 6.375 1.109 1.767-.007 2.532 1.392 4.411 1.201.707.138 1.582-.337 2.209-.033.719.318 1.503.25 2.354-.199 2.329-.59 2.862.959 7.021-.485 4.935-1.224 5.881-2.66.051-1.273.096-.372 8.668-4.778 6.953-4.615-1.732.693-3.571.429-5.216 1.374-.578.314-.328-.194.033-.367 6.451-4.566.386-1.226-2.511-.452 2.293-2.249 4.053-4.474 6.089-6.824.229-.166 0-.379-.223-.215-2.946 2.047-6.203 3.737-8.794 6.218.04-1.201 1.701-2.132 2.01-3.387-.788-2.272.094-4.944.464-7.451-.036.031-.066.063-.099.094 2.841-11.292 7.325-22.698 9.199-33.978.602-3.089.925-6.164.812-9.147-.166-2.823-.32-2.5 1.734-5.28.134.122.043.236-.016.335-1.125 2.537-2.153 5.237 1.056 1.036-.071 1.135-1.43 2.125-1.596 3.223.313.906 1.237-.864 1.656-1.203-.33 1.388-1.521 2.65-1.778 4.037.232 1.348 1.884-1.847 2.132-2.256-.042.861-1.353 1.975-.766 2.558.934-.286 1-1.688 1.87-2.273-.168.665-2.384 4.524-.194 2.544-1.697 3.148-2.237 4.386 1.198.76-.323.94-1.746 2.292-1.221 3.06.173.011.236-.148.295-.256.234-.44.61-.807 1.043-1.226-.04.693-.779 1.282-.522 1.959.169.412.548-.426.817-.569-.012.7-.468 1.22-.627 1.505a7.022 7.022 0 0 0 2.913-.012c.464-.1.92-.245 1.367-.423.463-1.273.896-2.546 1.311-3.82-.148.075-.23.052-.213-.187.07-1.008-.256-1.898-.452-2.824-.309-.62.585-.57.416-1.175.033-1.025-1.291-1.535-.671-2.675.496-1.77-.948-3.412-1.802-4.765-.288-.201.002-.554.248-.231.761.152.606-1.468 1.268-1.83.286.774-.458 2.337.356 2.698.236.072-.016.81.449.723.377-.15.181-.5.494-.751-.295 6.094 1.608-1.004 2.172-2.783.023.555-2.317 7.283-.173 4.798-.588.973-.326 3.316.674 1.043.044.352-.234 1.844.681.85-.021.648-.417 1.884.402 1.907.393-.063.063.501.468.421.204-.04.255-.19.262-.32.148-1.067.485-2.137.847-3.195.361 1.372-.091 2.708.134 4.033.255-.085.51-.167.765-.25.096-.408-.124-.74.222-1.15.068.346.138.681.204 1.011.498-.17.999-.32 1.502-.48a3.66 3.66 0 0 0 .063-.73c1.578.861-.021-3.248.171-3.636.309-.698-.058-1.138-.194-1.671-.236-.656.131-1.447-.267-2.057-.014-.604-1.441-1.426-.77-1.966.138-.077.085-.262.286-.351 1.097 1.748.894-1.056.683-1.65.578.952.707 2.1 1.332 2.988 1.093.64.564-.896.461-1.3.594.425.65 1.743 1.671 1.6.243-.145.17-.323.11-.475-.628-1.17-.525-2.614-1.044-3.833-.075-.176-.229-.36-.045-.693.976 1.325 1.119 3.084 2.308 4.285 1.158 1.037.227-1.987.11-2.322.849.536.767 2.427 1.753 2.53.886-1.718-1.33-3.892-1.706-5.504 1.099 1.4 2.122 2.878 2.553 4.629.114.37.344 1.184.978.994.147-1.036-.44-2.13-.693-3.126.548 0 1.503 1.935 2.17 1.734.575-1.392-1.234-2.162-1.187-3.473 1.156 1.688 2.247 3.213 4.053 4.425.134.424.674.134.613-.264ZM236.959 58.195c.197-1.018 1.509-1.563 2.3-2.364-5.904 1.676 3.15-2.885 4.529-3.087-1.248-.133-2.331.642-3.337.25-.16-.24 2.602-.975 3.1-1.286 1.805-.272 3.468-.906 5.348-.943.161.007.369.025.531-.178-5.649-.052.901-1.02 2.672-.915 3.915-.442 7.844.257 11.788.086 2.77.216 5.592.4 8.337.733 2.42.218 5.104 1.614 7.269.416-.992-.273-4.837.398-4.666-.393.309-1.053-3.129.475-2.371-.938-.721-.05-1.088.407-1.778.374-1.784-.236 1.268-1.135 1.645-1.638-1.318-.068-4.131 1.505-4.87.91-.297-.669 1.467-.812 1.947-1.263-1.165.304-2.378.529-3.44.978-.18.075-.365.213-.555.065.12-1.03 3.485-1.617 4.601-2.19-3.054.41-5.623 1.402-8.352 2.256-.236.122-.55.309-.807.094-.482-.363.833-.557.44-.787-.99-.601 2.012-1.2 2.639-1.558-1.074-.12-5.551 1.067-2.356-.433-.421-.218-1.9.11-1.154-.438 2.628-1.128 5.801-1.4 8.804-1.828-2.5-.257-4.98-.545-7.454-.823-.177-.035-.416-.059-.367-.227 1.207-.405 3.012-.194 4.413-.384l.019-.117c-2.078-.304-3.882-1.114-5.991-1.332-.206-.023-.575.068-.545-.166.473-.444 4.512.019 5.439.014-2.212-.821-5.05-.407-6.803-1.767-1.027-.582 1.612-.271 2.179-.489-3.777-.88-2.083-.758.62-.75-2.352-.839-5.593-.74-7.615-1.684 1.118-.393 2.92.033 4.243.003 4.94.341 9.14 2.16 13.285 3.805a92.304 92.304 0 0 1 7.097 3.384c.761.257 1.746-.253 2.64-.194-.377-.31-6.438-1.288-4.411-1.428.823-.007 1.645-.002 2.469-.002-.946-.332-2.666-.105-3.225-.688.108-.344.821 0 1.149-.23-.852-.142-1.713-.191-2.492-.416-.309-.089-.906.06-.887-.218.016-.239.636-.044.945-.18-1.959-1.027 2.605-.349 3.283-.885-1.575-.196-10.453-.776-4.284-1.502-8.701-1.467-3.67-1.774 1.581-.952-2.145-.623-4.897-.843-6.884-1.48.819-.416 2.333-.13 3.48-.098-.569-.437-1.435-.231-2.074-.617-.758-.214-.391-.745.37-.576.318.023.601.201 1.002.098-3.003-1.47-3.813-2.644.477-.99-1.041-2.424 1.741.354 2.967.478-.082-.59-1.748-.824-.199-1.084.101-.023.246 0 .295-.133-.671-.443-2.647-.356-2.911-.77.283-.351 1.179-.014 1.678-.223-.077-.114-.25-.245-.206-.327.426-.913-1.753-.56-2.169-1.093.524-.452 1.916-.094 2.7-.045 1.945-.04-4.423-1.951-4.088-2.443 2.034-.561 4.271.824 6.159 1.33.166-.759-1.474-1.1-1.519-1.728 2.27-.046 3.508 1.685 4.891 2.841-.192-2.492.571-1.865 1.739-.114.323-.237-.133-.555.314-.716.271-.073.449.086.589.201 1.32.985 1.044 2.298 1.461 3.552.311-.276.147-.606.561-.85.218.687.4 1.318.429 1.971.414-.973-.541-2.31.337-3.121 1.252.248.975 1.654 1.39 2.342.327-.154.283-.374.374-.562.096-.393.8-.416.756.017.653 1.425-.199 2.867.096 4.275.285-.276-.134-.819.54-.877 1.959.997-.213 3.234.005 4.636 1.399-2.846 1.414.91 1.348 1.849-.129.238.461.418.445.1-.337-1.168.88-2.195.311-3.482-.005-.152-.382-.356-.019-.442.482-.113.382.416.714.48.016-.82-1.006-2.402.208-2.994.611.07.052.482.571.676.101-.54.421-3.44.946-3.465.507-.005.353.339.393.554.105.223-.197.632.267.707.98-.234.386-1.322.788-1.867.042-.176.035-.424.41-.438.898.276.344 1.76.589 2.38.747-.917.798-4.24 1.929-4.718.671.204.163.892.234 1.28.603-1.24 1.008-.908.976.183.893-1.133.009-3.082 1.801-3.822.855.208.15.751.672 1.243.307-.843 2.052-4.505 2.183-1.807.979-.52 1.84-2.027 3.375-1.687.206.204-.03.349-.241.482-1.123.845-2.045 1.959-2.761 2.89 1.413-.882 3.971-1.823 1.666.208-.454.864-1.755 1.238-2.387 1.964 1.107-.204 2.225-1.348 3.37-.927-.134.87-3.691 1.596-4.538 2.813.91-.164 2.551-1.011 3.253-.92.04.538-1.159 1.475-2.015 1.73-.578.187-1.547.407-1.671.863.311.265 1.615.028.814.627-.716.494-1.092 1.152-2.014 1.617.547.068 1.015-.243 1.406.061.346.34-.618.424-.505.733.29.224.704-.105 1.074-.033.367.052.667.197.341.405-.922.852-2.291.833-3.648 1.369 2.354.094.398.353-.19.826.754.215 1.54-.48 2.055-.07-1.477.969-4.296 1.125-5.574 2.455 1.069.14 2.244-.995 3.185-.508-.049.714-3.113 1.544-3.143 2.218.218.017.321-.089.468-.138.597-.273 1.156.262.447.445-1.222.426-1.704 1.38-3.119 1.748.798.22 1.17-.122 1.874-.108.613-.084.793.375.204.494-.279.105-1.374.7-1.002.833 1.121.43 4.87-3.725 5.939-4.432.709-.623 1.517-1.678 2.841-1.704.34.059.548-.007.77-.138 1.538-.608 4.503-3.328 6.131-2.89-.098.712-2.115 1.252-2.571 2.055 1.165-.412 1.823-1.297 3.142-1.596 1.124-.209 2.664-1.117 3.759-.656-.478.632-1.919.88-2.593 1.627 2.363-.454 4.72-1.662 7.128-1.31-.176.498-2.918.62-3.705 1.26 1.051-.397 14.573-.853 8.317.403 3.698.597 8.352.595 11.315 2.095-1.32.648-5.45-.695-7.435-.48.51.372 2.366.494 2.226.962-.162.257-.723.115-1.116.084-1.437-.218-3.96-1.172-5.217-.994.77.554 11.774 4.043 6.504 3.468-.934-.108-2.741-.864-3.454-.637-.138 1.327-4.098-1.544-5.146-1.36.678.62 2.81.958 2.625 1.859-.25.21-.526.023-.751-.068-3.091-1.13-5.86-2.287-9.346-2.956 1.347.812 2.733 1.233 4.074 2.008.519.126 5.63 3.969 3.143 2.988-1.388-.77-3.033-1.296-4.465-2.026a.464.464 0 0 0-.452-.005c2.15.807 3.863 3.293.18 1.119 1.299 1.888-1.135.428-2.272.058.414.335 1.182 1.035-.096.878-.915.019-2.729-1.28-3.295-.934-.461.988-3.485-.847-4.631-.819 1.086.962 5.34 1.828 4.792 3.192-.954.204-1.663-.758-2.578-.69.781 1.532-1.706-.333-2.617-.003.302.35 1.276.637.889 1.037-.229.148-.428.014-.631-.07-.728-.3-1.538-.461-2.362-.61-.135.357.794.437.433.785-.685.393-1.352-.543-2.019-.271.547.26 1.519.74.196.758-1.626.58 3.164.21 3.562.218 5.785-.283 11.464 1.54 15.979 3.77.435.435 1.745.695 1.738 1.214-.201.274-.517-.093-.91-.016 1.889.583 8.542 4.8 2.607 2.352l-.115.091c1.72 1.121 3.553 2.762 3.628 4.33-1.376-.501-1.971-1.76-3.452-2.397.814 1.184 1.966 2.193 2.179 3.539.124.437.102.961.475 1.287 1.502 1.282 2.983 2.609 3.725 4.172.068.134.15.297-.075.386-.508.48 1.051 1.463 1.194 2.067 1.116 1.832 2.038 4.215-.798.899.653 1.401 1.029 2.822.947 4.315 0 .15.141.36-.166.402-.369.052-.386-.194-.421-.35-.454-1.945-1.708-3.74-2.932-5.519-.386 1.166.847 2.647.124 3.69-1.449-1.58-1.271-3.781-2.673-5.506-.592 1.612 2.778 4.893.309 6.136-.922-1.903-1.006-3.927-2.333-5.818-1.205.866-.32 2.31-1.385 3.047-1.364-1.486-.314-3.924-1.28-5.483.023.955-.77 1.81-.618 2.766.021.129.051.321-.234.344-.967-.355-.304-1.355-.833-1.984-1.262 4.914-2.361-.578-2.757-2.17-.891 3.312-1.624.576-1.959-.929-.751.756-.325 1.575-.739 2.366-.728 1.142-1.432-2.593-1.729-2.763-.506 3.173-1.407 1.575-1.781-.518-.73 1.124-.663-.514-1.404-.512-.534-.033-.869.35-.424.58 3.297 3.052-5.834-2.244-6.985-2.258 2.464 1.851 7.43 2.949 8.314 5.408-.175.077-.325-.014-.435-.093-.91-.518-1.949-1.135-3.169-1.222 1.185.606 2.294 1.207 3.075 2.062.894 1.554-4.458-2.06-5.213-2.125 1.411 1.556 4.663 2.359 4.472 4.397-.373 1.121-2.626-1.25-3.511-1.383.361.99 3.408 2.96 2.366 4.135-1.465-1.177-2.686-2.808-4.668-3.82 1.352 2.114 4.591 3.602 4.699 6.015-.003.166.079.398-.213.459-.581.107-.361-.517-.876-.492.132.3.595 1.962-.388 1.142-.482-.685-.594-1.462-1.299-2.101.082 1.299 1.079 2.588.45 3.957-.089.288-.061.78-.555.763-.871-.306-.131-1.664-.92-2.26-.084 1.734-.763 3.908-2.787 5.03-.777-.563.265-2.028-.051-2.854-2.006.906-.096-1.353-.66-1.919-.801.838-.887 1.685-1.938 2.38-1.224.606-.721-.85-.503-1.224.037-.199.632-.538-.293-.522-.407-.414-.168-1.177.043-1.673.091-.15.292-.297.072-.54-.536.343-3.321 3.97-3.573 2.461.756-2.918 5.265-4.99 5.565-8.05-2.348 1.278-2.645 4.02-5.313 5.015-.924-.917 1.025-1.999.834-3.082-.892.601-1.044 1.374-1.992 1.933-1.778 1.041-.489-1.095-.358-1.582.178-1.538 1.839-2.743 2.312-4.161-.674.122-2.265 2.738-2.78 1.748.07-1.71 2.043-3.147 2.319-4.743-.959.854-4.212 5.45-3.227 1.694-1.154 1.463-2.551 1.332-1.353-.295.064-.091.164-.283.021-.28-2.028-.34 2.455-5.053 1.643-6.144a16.318 16.318 0 0 1-3.068 4.1c-1.858 1.4 2.001-5.148 1.624-5.682-1.249.705-1.294 2.146-2.681 2.617-.328-.073-.108-.227-.066-.351.271-.843.101-1.678-.016-2.593-1.044 2.525-2.837 4.816-2.771 7.432-.007.162-.052.468-.44.323-.798-.468-1.748 3.552-2.013 4.028-2.101 5.904-3.236 11.97-3.648 18.014.419 12.488-2.761 25.31 1.903 37.556.594-1.589 1.628-3.096 1.745-4.746-.002-.145-.051-.37.265-.377.906.655.203 2.226.606 3.15.849 2.448-.817 4.957-.276 7.4-.269-2.755 1.781-3.845 3.398-6.113.058-.133-.045-.386.292-.351.719 2.588-.112 5.418-1.175 8.02 2.306-1.657 4.639-3.169 7.791-3.983.557-.18 1.027.192.313.351-1.074.552-1.9 1.463-2.213 2.268.201.243-.01.372-.267.512-.255.199-.84.389-.838.663.721.182 1.657-.412 2.499-.349 2.341-.073 4.657.299 7.002.182.187.012.398.042.454.183-.604.955-3 .826-3.658 1.856-.046.086-.241.149-.388.196-2.921 1.028-6.246 1.133-9.487 1.07-2.488-.04-4.194 1.439-6.758 1.2-1.058.136-2.081-.386-3.099-.075-1.153.328-2.23.241-3.229-.255-3.019-.669-4.463.971-9.679-.641-6.41-1.392-7.098-2.944.498-1.36.033-.4-10.079-5.251-7.734-5.045 2.13.77 4.844.52 6.74 1.559.674.344.547-.202.119-.394-7.051-4.984.007-1.315 3.744-.435-2.223-2.438-3.706-4.842-5.525-7.383-.248-.18.171-.405.41-.225 3.236 2.237 7.072 4.098 9.609 6.787.482-1.283-1.444-2.303-1.318-3.646 2.13-2.408 2.087-5.275 2.689-7.955.035.033.063.068.098.103 1.06-12.092-.145-24.333 2.272-36.395.541-3.306 1.461-6.59 2.961-9.77 1.5-3.005 1.575-2.658-.077-5.659-.244.127-.167.25-.127.359.447 2.726.686 5.623-1.954 1.085-.409 1.21 1.063 2.291.805 3.464-.849.96-1.357-.943-1.797-1.31-.157 1.483.957 2.85.697 4.336-.931 1.434-1.827-2.001-1.991-2.443-.328.92 1.022 2.13-.066 2.74-1.189-.32-.653-1.818-1.617-2.455-.061.714 1.334 4.865-.868 2.715.978 3.388 1.187 4.715-2.031.788.033 1.007 1.434 2.476.348 3.284-.248.01-.269-.16-.301-.276-.131-.473-.501-.871-.922-1.325-.253.74.524 1.383-.145 2.1-.424.434-.583-.466-.899-.623-.297.746.112 1.308.21 1.617-1.357.18-2.744.192-4.102-.066a11.753 11.753 0 0 1-1.736-.475 80.006 80.006 0 0 1-.134-4.095c.174.082.302.058.384-.197.354-1.079 1.212-2.02 1.903-3.005.713-.657-.571-.617-.061-1.259.414-1.095 2.509-1.614 2.148-2.84.094-1.896 2.867-3.623 4.676-5.048.496-.209.246-.593-.246-.25-1.142.149-.196-1.578-.969-1.976-.749.82-.402 2.5-1.71 2.872-.365.074-.342.865-.96.762-.463-.166-.03-.535-.358-.81-2.319 6.502-1.818-1.1-1.814-3.007-.283.59-.002 7.807-1.909 5.12.391 1.05-1.027 3.542-1.418 1.1-.218.375-.496 1.971-1.341.895-.26.692-.258 2.017-1.423 2.026-.526-.075-.314.534-.849.44-.267-.046-.274-.206-.225-.346.271-1.14.274-2.286.239-3.421-1.121 1.455-1.086 2.89-1.997 4.296-.322-.093-.645-.187-.968-.278.046-.436.507-.787.201-1.229-.253.37-.499.725-.74 1.077-.627-.19-1.266-.358-1.902-.539.047-.26.119-.52.236-.779-2.609.89 1.489-3.463 1.39-3.882-.124-.75.595-1.21 1.023-1.779.627-.693.466-1.544 1.299-2.19.29-.644 2.672-1.493 1.968-2.083-.162-.084-.003-.28-.244-.38-2.333 1.847-.788-1.139-.222-1.77-1.243 1.003-1.94 2.225-3.215 3.163-1.828.663-.393-.964-.068-1.397-1.03.442-1.699 1.847-3.075 1.678-.276-.16-.096-.346.056-.508 1.406-1.235 1.914-2.778 3.192-4.07.185-.184.484-.38.372-.737-1.968 1.395-2.96 3.27-5.176 4.526-2.099 1.086.571-2.122.884-2.478-1.439.557-2.169 2.574-3.604 2.666-.479-1.847 3.618-4.126 4.875-5.84-2.179 1.475-4.285 3.034-5.675 4.89-.327.39-1.016 1.256-1.825 1.04.257-1.108 1.577-2.262 2.377-3.32-.772-.01-2.986 2.038-3.835 1.81-.187-1.494 2.707-2.285 3.232-3.682-2.387 1.778-4.608 3.386-7.699 4.645-.368.464-.997.145-.733-.278Zm572.181 54.377c-.665-1.901-1.133-3.974-2.462-5.547 2.717 1.402-.098-1.661-1.118-2.101 2.578.522-1.383-1.809-2.188-2.022.292-.187 1.13.131.468-.524-.915-1.063-2.306-.487-3.412-.747 7.123-.678-7.421-1.364-9.405.56 1.722-1.29-.019-.588-.894-1.023.828-.227 3.421.608 2.955-.63.686-.096 3.534.298 2.595-.786.398-.1 1.222-.194 1.332-.625-1.39-.206-3.15-.154-4.624-.346.55-.5 3.651.239 2.855-.777-.697-.05-1.374-.241-2.078-.258.76-.435 5.001.539 3.098-.765.655.05 2.864-.025 1.24-.68.911-.008 2.638-.684.803-1.063 1.781-.473 3.454-1.297.386-.903 5.39-3.099-1.729-.155-3.543-.33-2.696-.003-3.802 2.609-6.213 3.068-1.54.142 4.968-2.186 1.072-1.617.262-.6 2.768-.878 1.563-1.36 2.476-1.238 1.664-1.561-.533-.775.704-1.067 2.092-1.783 2.929-2.602-1.252-.098-2.635.83-3.711 1.544.637-2.347-1.519 1.332-2.417 1.325-1.112 1.477-2.221 2.722-2.617 4.638-.199-.302.145-.653-.147-.812-.803-.29.608-1.345.016-1.85-.353-.1-.313.383-.683.416.117-.553.615-3.68-.44-2.63-.295-.787-1.011-4.45-1.098-1.077-.463-.405-.809-3.04-1.376-1.996.171.617.536 1.032.363 1.79-.983-2.368-4.158-3.377-1.327-.143-3.414-.578-2.319.042-.187 1.418-3.18-.17 1.378 1.198 1.582 2.24-4.226-1.978-1.746.133.045 1.58-1.526-.497-3.347-1.489-1.236.512-.391.49.091.681.321.922 2.569 2.275-.333-.166 1.209 2.165-1.717-.89-2.939-3.319-5.412-3.197-5.111-1.907-9.047.283-12.616 3.307-1.299 1.186-3.665 2.565-3.087 4.381.286-.007.222.4.005.451-4.226 1.018-6.494 3.007-.363 1.32-.292.463-1.537.62-1.439 1.339 1.074.201 2.375-.969 3.417-.852-.174.569-1.089.88-1.512 1.35-.688 1.009 1.928-.297 2.211-.657.861-.298-.18.786.099 1.06 1.687-.354 3.182-2.123 4.666-2.912-.669 1.332-2.883 1.987-2.862 3.471 2.073-.606 3.517-2.923 5.48-3.896-1.163 1.142-5.621 5.558-1.259 2.497-2.134 3.32 1.594-.139 2.762-.738-2.542 3.071-1.907 3.356.997.894-.824 2.067.346.892 1.095.445.019 1.32 1.252-.501 1.865-.592-1.764 2.541 1.037.255 1.853-.332-.362.777-1.322 1.415-1.249 2.202 1.364.697 2.338-3.096 2.988-1.365-6.026 5.774-11.953 12.083-16.47 19.267-1.516 2.254-2.855 4.606-4.09 7.021l2.422 1.313c3.566-8.055 8.218-16.4 14.909-22.174-.826.391-5.638 6.085-2.614 3.707-.44.901-2.322 4.159-.211 1.933-.98 1.011-2.817 5.418-.32 2.352-.922 1.949-1.32 4.032-2.329 5.855 1.018-.423 1.304-2.132 2.193-3.044-.487 1.628-.796 3.538-.353 5.12.645-.634.138-2.467.938-3.031-.293 5.458.447 6.642 1.186.293 1.089 5.476 1.278-.197 1.402-1.884.765 2.881.683-.255.915-1.144.283 7.498 1.636-2.425 1.196-4.561.641.966-.049 2.962.983 3.667.601-.538-.012-1.739.33-2.483.138.391.304 1.205.798.608.781-.582.138-1.415.494-2.113.699 1.271.559-.679.8-1.079.487-.327.133-.854.363-1.287.741.777 1.399-1.303 2.131-1.397-.166.573-.636 1.039-.882 1.594-.943 3.04.782-.286 1.744-.936-.583 1.359-1.105 2.733-1.826 4.032-.713 2.754 4.185-5.441 2.401-2.141-.259 1.13-1.146 2.181-1.401 3.199.582-.019 2.232-3.01 2.003-1.805-.398.637-1.285 1.521-1.011 2.277.545-.039.604-.969 1.334-1.074-.433.529-2.514 5.851-1.404 5.029.601-1.121 1.319-2.469 2.335-3.171.227 1.046-1.144 2.486-.877 3.452.638-.232.947-1.376 1.441-1.912-.819 1.444-1.781 11.806.183 5.443-.443 8.086 1.216 2.547 1.907-1.163 2.34 4.189.622-2.181.505-3.599 2.158 5.165 1.098-.73.801-2.63.645.257.482 1.268.959 1.61.908-1.695-.973-3.756-.999-5.621.639 1.32 1.593 2.611 2.314 3.7.934-1.011-2.544-5.25-.611-3.691.293-1.245-1.011-2.445-1.565-3.403 3.618 2.322.515-1.547-.749-2.445 1.004-.314-1.523-1.718-.557-2.736.229.906.466 2.029 1.06.684 1.439 3.578.723.816 1.046-.864.347 1.774.997 4.568.871.669.398 1.54.486 5.259 1.055.672.325 1.196-.36 2.719.276 3.737.705-.334.492-1.411.606-2.141.335 1.397-.21 3.218.625 4.414.712-1.482.246-3.637.873-5.331.566 1.378.054 2.962.592 4.165.51-.461.473-1.807.761-2.553.213 1.238-.328 3.056.669 3.934.548-.88-.08-2.315.276-3.377.199-.19.162.274.166.377.258.524-.332 4.722.571 3.461.726 2.005.908-2.455.838-3.096.672 4.968.496 5.904 1.21-.351.524.814 1.125 8.623 1.706 5.169.69 3.012.767 3.48 1.081.073.213 2.406 1.395 4.949 1.449 1.029 2.117 6.09 1.722-2.021.404-3.727 1.919.868-1.783-4.054-2.225-4.552 1.451.084-1.914-2.815-2.511-2.918-.307-1.341-.485-3.022-.492-4.503.44 1.404 1.618 7.133 1.969 2.942.271 2.738 1.72 4.783.709.428.046.889 2.693 4.931 2.326 2.296.758 1.011 1.551 4.261 1.364.917.115.438 1.294 2.062 1.245 1.133Zm-23.902.128c-.709 1.238-1.418 2.476-2.078 3.754-.047-.597-.248-2.321.622-1.631.199-.056.197-.274.199-.414-.18-.634 1.371-2.584 1.257-1.709Zm387.452-18.67c-1.67 2.904.5.356 1.63-.206-1.51 2.188 2.67-.231 3.11-1.006-2.86 3.436-.65 2.26.83-.063-1.57 3.903 2.06-.688 3.08-1.744-.67 1.32-1.59 2.74-2.46 3.8-.58-.172-4.89.904-3.56 1.48-.62.248-6.13 2.979-4.03 3.068-1.95.931-5.94 7.999-1.32 3.51-1.71 3.529.49 1.786 1.76-.269-1.25 3.187-.97 2.804 1 .421-1.04 3.347 3.01-3.36 3.84-3.852-2.17 5.909-1.91 4.994.93.857-.35.54-2.19 4.605-.65 3.14.24 1.533 1.6-2.48 2.07-2.834.05-.091.22-.52.32-.262-.16 1.11-1.37 2.111-1.28 3.141 1.29-.335 1.62-2.202 2.37-3.213-.08.798-.72 1.982-.47 2.623 1.02-.833 1.28-2.478 2.4-3.454-.2 1.795-1.59 3.513-1.61 5.155 1.28-.692 1.61-2.564 2.54-3.662-.23.704-.9 1.57-.42 2.186 1.02-.625 1.09-2.294 1.92-3.216-1.55 4.351.2 1.072 1.25-.126-1.87 3.426-.03 1.224 1.08-.206-.47 1.648-2.35 3.791.54 1.24-.07 1.47.64.571 1.26-.133.4 1.343-2.49 1.463-1.73 2.193-1.53.236-6.04 2.295-1.77 1.849-.92.606-2.63 1.092-2.93 2.337 2.43-.524-2.58 1.702-2.2 3.022 1.14-.649 2.57-1.374 3.73-2.266-.86 1.655-3.47 2.649-3.41 4.573.58-.091.88-1.067 1.58-1.006-1.12 1.563-4.72 6.353-.47 2.71-.74 1.214-5.14 6.133-1.16 3.442-1.05 3.623-2.06 9.316 1.18 1.896-1.11 6.566 2.69-3.124 2.61-4.781.19.702-.04 1.86.42 2.356.68-.744.1-2.644.77-3.477.59 1.083.63 2.609.66 3.882.62 1.233 1.16-4.456 1.01-5.123.6.419.24 1.278.71 1.559.58-.552.19-1.741.12-2.49.34-1.179.46 2.233.98 2.511.23-1.023-.09-2.361.18-3.487-.11-3.751.58 5.773 1.19 2.991-.06-1.484.09-2.946.18-4.423.56 1.013.61 4.76 1.14 1.619.03-.606-.19-1.233-.08-1.82.62.412.27 2.564 1.28 2.204.01.489-.54.803-.25 1.313.03.466-.97 2.144.22 1.325.01.781-.94 1.237-.51 2.11.18.756.69.103.99-.184-.03.821-1.11 1.617-.82 2.368 1.24-.166 1.52-2.258 2.53-2.834-1.36 1.711-4.61 11.184-.98 4.612-.2.899-1.68 3.665.3 1.435-.65 1.563-3.03 6.716.4 2.312-2.19 6.005-1 5.277 1.19.271.47.864-.81 2.273-.52 3.129 1.11-1.214 1.69-3.058 1.99-4.732.38 1.215-.13 2.87.59 3.705-.09-2.083.49-4.121.55-6.276.85 3.861 1.19-.901.77-2.247.88 2.935.66-.819.68-1.823 1.63 3.485-.11-3.765-.68-4.486 3.39 8.162 3.79 17.71 3.36 26.507l2.75-.084c-.01-2.712-.15-5.418-.5-8.111-.8-8.448-3.26-16.749-6.05-24.612 1.36-1.254.52 2.572 2.05 2.562.42-.669-.15-1.673-.12-2.527.46.894 1.94 4.196 1.5 1.13.51.358.79 2.537 1.4 1.367.47.735.98 2.312 1.18.096 1.49 3.506 2.18 3.534 1.29-.351.77 1.06 2.55 5.825 2.13 1.9 2.52 4.695.52-1.254 0-2.796 1.32 1.752 1.57 4.469 3.15 5.944.68-1.315-1-2.895-1-4.386.97 1.372 1.51 3.623 2.86 4.699.37-.119-.07-1.556.56-.903.09.449 1.84 2.792 1.68 1.582-.17-.613-.84-1.299-.74-1.886.98.365 1.62 1.994 2.67 2.298.41-.597-.63-1.297-.69-1.842 4.72 4.262 3.59 1.467.27-1.341-.17-.143-.04-.538.21-.402 1.33-1.362-.16-3.656-.79-5.301-1.83-4.303-4.36-8.03-9.78-8.623-2.16-1.222-4.34.4-6.27.42 2.42-1.39-1.27-.512 2.05-1.39.31-.112.83-.065.7-.678 2.79-.838.71-.77-.87-1.013 2.25-.487 5.41-1.26.75-1.39.65-.84 5.34-.014 2.42-1.29 2.52-.271 3.78-.335.47-1.353 3.98-1.617.69-2.14-1.25-.468.18-.755.7-.961 1.13-1.436-.04-1.184-1.53 1.013-2.13 1.165 1.44-3.05-.85-.1-1.47.47-.47-1.413-1.42 1.606-1.57 2.153-.31-.196-.06-.608-.42-.678-.76.185.03 1.762-.82 1.661-.33.012-.18.48-.5.66.51-1.888.08-3.5-.25-5.319-.81-.398-1.08-4.652-1.56-2.27-.64-1.121-1.46-2.574-2.63-3.05.38 1.11 1.3 2.374 1.45 3.642-1.61-1.69-2.48-1.765-.82.454-1.3-.11.82 1.264.78 1.917-3.22-2.259 1.55 2.745.23 1.926-1.94-1.493-1.76-4.323-4.17-5.533-1.7-.657-6.73-6.487-3.31-1.296-2.56-1.732-1.44-.243-.06.98-1.81-.484-.57.894.24 1.311-1.75-.145.19.917.8 1.168-2.28.309 1.94 1.345 2.42 2.076-.63-.305-1.32-.436-1.97-.705-1.17.55 1.94 1.282 2.2 1.978-1.4-.492-2.95-1.33-4.28-1.77-.1.436.59.89.91 1.159-1.33.547 1.39 1.474 1.96 1.87-.97.896 1.72 1.315 2.36 1.89-.98-.004-2.22-1.415-1.26.51-.91-2.609-14.21-8.534-8.15-4.727-1.11-.264-2.09-1.404-3.39-.865-.88.287.01.379.18.678-.81-.17-5.4.131-2.86.824-1.11-.066-5 1.406-1.94 1.376-1.9.807-3.25 2.45-4.69 3.85-.46.8 1.32-.12 1.63-.47Zm20.02 13.412c-.06.126-.16.318-.01.459 1.09-.227.13 1.224-.18 1.736-.01-1.439-.09-2.862-.17-4.287.3-.836.8 1.605.36 2.092Z"/><path fill="#000" d="M1514.92 128.53c-98.29 18.721-196.57-16.382-299.54-2.341l-42.12 7.021c-49.15 9.361-95.95 0-145.09 7.021-93.607 16.381-180.193 7.02-271.459-16.382-42.122-11.701-81.905 0-124.028 9.361-63.184 14.041-121.688-9.361-182.531-7.021-21.062 2.341-44.463 4.681-67.865 2.341-93.606-11.701-182.532-28.083-276.138-28.083-35.994 0-70.843-10.29-106.149-19.683v67.926h1755.11v-48.372c-79.28 5.858-158.84 14.063-240.19 28.212Z"/></svg>