<svg width="146" height="48" fill="none" xmlns="http://www.w3.org/2000/svg"><g clip-path="url(#a)"><path d="m135.69 15.188-8.024-1.862-1.433-.574-36.824.287v17.767l46.281.143V15.19Z" fill="#000"/><path d="M120.645 29.23a4.096 4.096 0 0 0-.43-3.726 4.422 4.422 0 0 0-3.009-1.576l-24.931-.286c-.144 0-.287-.143-.43-.143a.267.267 0 0 1 0-.43c.143-.287.286-.43.573-.43l25.075-.287a9.017 9.017 0 0 0 7.307-5.445l1.433-3.725c0-.143.143-.287 0-.43A16.327 16.327 0 0 0 111.194.024a16.333 16.333 0 0 0-16.34 11.009A7.822 7.822 0 0 0 89.695 9.6a7.464 7.464 0 0 0-6.59 6.591 7.827 7.827 0 0 0 .143 2.58A10.462 10.462 0 0 0 73.075 29.23c-.024.53.024 1.06.143 1.576a.458.458 0 0 0 .43.43h45.994c.286 0 .573-.143.573-.43l.43-1.576ZM128.525 13.182h-.716c-.143 0-.287.143-.43.287l-1.003 3.438a4.095 4.095 0 0 0 .43 3.726 4.422 4.422 0 0 0 3.009 1.576l5.301.287c.144 0 .287.143.43.143a.256.256 0 0 1 .079.095.265.265 0 0 1-.079.335c-.143.286-.286.43-.573.43l-5.445.286a9.013 9.013 0 0 0-7.307 5.445l-.287 1.29c-.143.143 0 .43.287.43h18.913a.38.38 0 0 0 .43-.43c.341-1.215.534-2.465.573-3.726a13.695 13.695 0 0 0-13.612-13.612ZM144 38.973a1.288 1.288 0 0 1-1.265-1.541 1.294 1.294 0 0 1 1.013-1.013 1.288 1.288 0 0 1 1.324.548A1.288 1.288 0 0 1 144 38.973Zm0-2.293a1.003 1.003 0 1 0 1.003 1.003.989.989 0 0 0-.287-.716.97.97 0 0 0-.716-.287Zm.573 1.72h-.286l-.287-.43h-.287v.43h-.286v-1.29h.716a.38.38 0 0 1 .43.43c0 .143-.143.287-.286.43l.286.43Zm-.43-.717c.144 0 .144 0 .144-.143a.132.132 0 0 0-.011-.055.13.13 0 0 0-.031-.047.137.137 0 0 0-.102-.041h-.43v.43h.43v-.144Zm-128.525-1.29h3.152v8.598h5.445v2.722h-8.597v-11.32Zm11.893 5.589a5.882 5.882 0 0 1 6.16-5.875 5.762 5.762 0 0 1 6.019 5.875 5.883 5.883 0 0 1-6.162 5.874 5.844 5.844 0 0 1-6.017-5.874Zm9.026 0a2.947 2.947 0 0 0-2.865-3.152 3.012 3.012 0 0 0 0 6.017c1.719.287 2.865-1.146 2.865-2.865Zm7.021.716v-6.304h3.152v6.304c0 1.576.86 2.436 2.15 2.436a2.005 2.005 0 0 0 2.149-2.292v-6.448h3.152v6.304c0 3.726-2.15 5.302-5.301 5.302-3.296-.144-5.302-1.72-5.302-5.302Zm15.332-6.304h4.441c4.012 0 6.448 2.292 6.448 5.588 0 3.295-2.436 5.731-6.448 5.731h-4.298v-11.32h-.143Zm4.441 8.453a2.878 2.878 0 1 0 0-5.73h-1.29v5.73h1.29Zm10.89-8.453h9.027v2.722h-5.875v1.863h5.302v2.579h-5.302v4.155h-3.152v-11.32Zm13.469 0h3.152v8.597h5.445v2.722H87.69v-11.32Zm16.764-.143h3.152l4.872 11.462h-3.439l-.86-2.006h-4.442l-.859 2.006h-3.296l4.872-11.462Zm2.865 7.02-1.289-3.152-1.29 3.152h2.579Zm9.171-6.877h5.301a4.897 4.897 0 0 1 3.725 1.29 3.755 3.755 0 0 1 .142 4.95 3.754 3.754 0 0 1-1.431 1.067l2.722 4.012h-3.582l-2.292-3.439h-1.433v3.44h-3.152v-11.32Zm5.158 5.445c1.003 0 1.719-.574 1.719-1.29 0-.86-.716-1.29-1.719-1.29h-2.006v2.723h2.006v-.143Zm9.313-5.445h9.17v2.579h-6.018v1.72h5.445v2.578h-5.445v1.72h6.162v2.722h-9.314v-11.32Zm-122.22 7.02a2.83 2.83 0 0 1-2.58 1.72 3.013 3.013 0 0 1 0-6.018 3.006 3.006 0 0 1 2.723 1.863h3.295a5.925 5.925 0 0 0-6.018-4.728A5.97 5.97 0 0 0 0 42.125 5.845 5.845 0 0 0 6.018 48a6.187 6.187 0 0 0 6.018-4.585H8.74Z" fill="#fff"/></g><defs><clipPath id="a"><path fill="#fff" d="M0 0h145.29v48H0z"/></clipPath></defs></svg>