<svg width="1749" height="317" fill="none" xmlns="http://www.w3.org/2000/svg"><path d="M1710.62 312.411c-10.03-9.906-28.55-9.637-38.27.555-4.16-18.804-19-34.984-37.66-41.052-18.66-6.066-40.45-1.795-55.28 10.835-6.61-25.719-43.96-37.687-64.84-20.772 4.73-17.832-2.1-38.087-16.74-49.668-14.65-11.582-36.32-13.864-53.15-5.6 6.93-19.922 1.66-43.416-13.16-58.669-14.82-15.254-38.54-21.591-59.22-15.829 3.57-52.285-30.56-104.97-80.41-124.132-47.19-18.139-104.94-4.867-139.61 31.111-16.06-1.119-32.32 1.03-47.35 6.805-43.74 16.812-73.69 63.043-70.55 108.92-18.16-5.057-38.965.506-51.969 13.889-13.005 13.384-17.628 33.999-11.551 51.48-14.767-7.252-33.785-5.249-46.634 4.915-12.849 10.161-18.841 27.935-14.691 43.581-18.317-14.841-51.095-4.341-56.891 18.228-13.014-11.083-32.135-14.83-48.507-9.506-16.373 5.324-29.399 19.522-33.044 36.021-8.529-8.945-24.782-9.181-33.579-.487-9.515-9.897-28.813-7.451-35.436 4.488H1751c-7.55-13.606-29.54-16.39-40.38-5.113Z" fill="url(#a)"/><path d="M129.319 94.364c27.784-33.486 78.53-46.55 119.56-30.779C289.91 79.355 318 122.72 315.058 165.754c17.028-4.744 36.545.475 48.744 13.028 12.198 12.555 16.535 31.89 10.833 48.29 13.851-6.803 31.69-4.924 43.745 4.61 12.052 9.532 17.673 26.203 13.782 40.881 17.183-13.922 47.926-4.072 53.365 17.098 12.208-10.396 30.142-13.911 45.501-8.919 15.358 4.994 27.576 18.312 30.996 33.788 7.998-8.39 23.247-8.612 31.496-.456 8.924-9.284 27.026-6.991 33.24 4.209H8.967c-9.694-14.485-11.864-38.622-4.858-54.522 7.008-15.899 22.515-27.925 39.935-30.97-10.383-11.371-3.442-33.891 3.1-47.733 6.541-13.84 21.923-23.203 37.507-22.826-10.769-3.398-11.113-17.664-13.148-28.553-2.036-10.889 2.487-22.714 11.33-29.62 11.442-8.933 31.852-10.032 46.486-9.695Z" fill="url(#b)"/><defs><linearGradient id="a" x1="1226.54" y1="-311.052" x2="1226.54" y2="380.625" gradientUnits="userSpaceOnUse"><stop stop-color="#FAFFE8"/><stop offset="1" stop-color="#FFFFF4" stop-opacity="0"/></linearGradient><linearGradient id="b" x1="313.381" y1="-175.036" x2="313.381" y2="410.303" gradientUnits="userSpaceOnUse"><stop stop-color="#FAFFE8"/><stop offset="1" stop-color="#FFFFF4" stop-opacity="0"/></linearGradient></defs></svg>