<svg width="340" height="70" fill="none" xmlns="http://www.w3.org/2000/svg"><path d="M1.217 38.065c-1.623-2.043-1.623-4.087 0-6.13l24.178-30.33C26.86-.23 28.43-.492 30.105.818l6.908 5.5c1.413 1.152 1.309 2.724-.314 4.715L17.31 35 36.7 58.966c1.623 1.991 1.727 3.563.314 4.715l-6.908 5.5c-1.675 1.31-3.245 1.048-4.71-.785L1.217 38.065Z" fill="#fff"/><path d="M252.298 67.938c-2.143 0-3.215-1.148-3.215-3.445V5.507c0-2.297 1.072-3.445 3.215-3.445h39.416c2.297 0 3.446.995 3.446 2.986v5.42c0 1.991-1.149 2.986-3.446 2.986h-29.217v14.609h26.782c2.297 0 3.446.995 3.446 2.986v5.42c0 1.992-1.149 2.987-3.446 2.987h-26.782v17.09h30.687c2.297 0 3.446.995 3.446 2.985v5.421c0 1.99-1.149 2.986-3.446 2.986h-40.886ZM185.687 67.938c-2.144 0-3.216-1.148-3.216-3.445V5.507c0-2.297 1.072-3.445 3.216-3.445h16.032c14.088 0 23.613 2.848 28.575 8.544 4.992 5.697 7.488 13.797 7.488 24.302 0 10.505-2.496 18.636-7.488 24.394-4.962 5.757-14.487 8.636-28.575 8.636h-16.032Zm10.198-11.393h4.962c9.494 0 15.634-1.76 18.421-5.283 2.787-3.552 4.181-9.004 4.181-16.354s-1.394-12.771-4.181-16.263c-2.787-3.521-8.927-5.282-18.421-5.282h-4.962v43.182ZM108.142 35c0-10.566 2.725-18.957 8.177-25.175C121.77 3.608 129.549.5 139.656.5c10.106 0 17.885 3.108 23.337 9.325 5.451 6.218 8.177 14.609 8.177 25.175s-2.726 18.958-8.177 25.175c-5.452 6.217-13.231 9.325-23.337 9.325-10.107 0-17.886-3.108-23.337-9.325-5.452-6.217-8.177-14.609-8.177-25.175Zm14.333 0c0 7.657 1.362 13.521 4.088 17.595 2.757 4.042 7.121 6.064 13.093 6.064 5.972 0 10.321-2.022 13.046-6.064 2.757-4.074 4.135-9.938 4.135-17.595 0-7.657-1.378-13.506-4.135-17.549-2.725-4.073-7.074-6.11-13.046-6.11-5.972 0-10.336 2.037-13.093 6.11-2.726 4.043-4.088 9.892-4.088 17.549ZM43 35c0-10.566 2.68-18.957 8.04-25.175C56.398 3.608 64.131.5 74.238.5c5.819 0 10.75.903 14.792 2.71 4.043 1.807 6.89 4.426 8.545 7.856 1.102 2.266.918 3.797-.552 4.594l-5.512 2.94c-1.93 1.041-3.522.46-4.778-1.746-.796-1.409-2.282-2.68-4.456-3.813-2.144-1.133-4.67-1.7-7.58-1.7-6.431 0-10.933 2.037-13.506 6.11-2.573 4.043-3.859 9.892-3.859 17.549s1.286 13.521 3.859 17.595c2.572 4.042 7.074 6.064 13.506 6.064 3.46 0 6.37-.781 8.728-2.343 2.39-1.562 4.043-3.048 4.962-4.456 1.5-2.297 3.093-2.88 4.777-1.746l5.513 3.675c1.501 1.01 1.654 2.542.46 4.594-1.777 3.063-4.824 5.681-9.142 7.856-4.319 2.174-9.571 3.261-15.757 3.261-9.954 0-17.656-3.108-23.108-9.325C45.711 53.958 43 45.566 43 35Z" fill="#fff" fill-opacity=".25"/><path d="M302.616 63.681c-1.413-1.152-1.308-2.724.314-4.715L322.32 35l-19.39-23.966c-1.622-1.991-1.727-3.563-.314-4.715l6.908-5.5c1.675-1.31 3.245-1.048 4.71.785l24.179 30.332c1.622 2.042 1.622 4.086 0 6.129l-24.179 30.33c-1.465 1.834-3.035 2.096-4.71.787l-6.908-5.501Z" fill="#fff"/></svg>