<svg width="480" height="272" fill="none" xmlns="http://www.w3.org/2000/svg"><path d="M30.883 49.143c11.101 0 19.682-8.373 19.682-18.702 0-9.676-8.062-15.585-13.4-15.585-7.436 0-13.395 5.21-14.244 12.942-.158 1.432-1.294 2.633-2.736 2.623a901.472 901.472 0 0 0-8.09-.03c-.95.003-1.735-.767-1.688-1.715.332-6.706 2.579-12.977 6.862-17.794 4.759-5.352 11.69-8.494 19.895-8.494 13.786 0 26.8 12.506 26.8 28.053 0 17.215-14.286 31.17-32.788 31.17-13.195 0-26.484-8.608-31.124-20.644a.258.258 0 0 1-.012-.14c.062-.356.185-.681.305-1.002.176-.465.348-.92.323-1.445l-.08-1.677a2.043 2.043 0 0 1 1.185-1.948l.67-.312a2.588 2.588 0 0 0 1.46-1.878A2.602 2.602 0 0 1 6.47 30.44c1.97 0 3.684 1.309 4.328 3.169 3.098 8.953 8.024 15.533 20.084 15.533Z" fill="#FB6970"/><g clip-path="url(#a)"><path d="M136 64c17.581 0 31.832-14.327 31.832-32 0-17.673-14.251-32-31.832-32-17.581 0-31.832 14.327-31.832 32 0 17.673 14.251 32 31.832 32Z" fill="#C4001A"/><path fill-rule="evenodd" clip-rule="evenodd" d="M121.531 16.132h28.938v8.727h-28.938v-8.727Zm0 11.636h28.938v8.728h-28.938v-8.728Zm0 11.637H136v8.727h-14.469v-8.727Z" fill="#E3E3DA"/></g><g clip-path="url(#b)"><path d="M240 64c17.673 0 32-14.327 32-32 0-17.673-14.327-32-32-32-17.673 0-32 14.327-32 32 0 17.673 14.327 32 32 32Z" fill="#635BFF"/><path d="M256.854 32.234c0-2.397-1.161-4.288-3.38-4.288-2.218 0-3.577 1.89-3.577 4.27 0 2.818 1.592 4.241 3.875 4.241 1.115 0 1.957-.25 2.594-.608v-1.875c-.637.318-1.367.515-2.294.515-.908 0-1.713-.318-1.816-1.423h4.579c.001-.12.019-.607.019-.832Zm-4.625-.89c0-1.057.647-1.5 1.237-1.5.571 0 1.18.438 1.18 1.5h-2.417Zm-5.946-3.398a2.644 2.644 0 0 0-1.835.73l-.122-.58h-2.062v10.917l2.34-.496.01-2.65c.337.244.833.59 1.657.59 1.676 0 3.203-1.348 3.203-4.316-.008-2.716-1.553-4.195-3.191-4.195Zm-.562 6.45c-.553 0-.88-.196-1.105-.437l-.01-3.473c.244-.272.581-.46 1.115-.46.851 0 1.441.956 1.441 2.183.001 1.252-.58 2.188-1.441 2.188Zm-6.676-7.003 2.35-.506v-1.9l-2.35.496v1.91Zm0 .712h2.35v8.193h-2.35v-8.193Zm-2.519.692-.151-.692h-2.021v8.192h2.34v-5.552c.553-.721 1.489-.59 1.779-.487v-2.153c-.299-.113-1.394-.319-1.947.692Zm-4.682-2.724-2.282.49-.009 7.5c0 1.385 1.039 2.406 2.425 2.406.768 0 1.329-.14 1.639-.31v-1.902c-.3.122-1.779.552-1.779-.833v-3.325h1.779v-1.994h-1.782l.009-2.032Zm-6.329 4.41c0-.365.299-.506.796-.506.81.017 1.604.223 2.321.6v-2.202a6.17 6.17 0 0 0-2.32-.43c-1.9 0-3.165.993-3.165 2.65 0 2.585 3.559 2.173 3.559 3.287 0 .43-.375.571-.899.571-.777 0-1.77-.318-2.556-.75v2.229c.807.35 1.676.53 2.556.534 1.947 0 3.286-.965 3.286-2.641-.011-2.79-3.578-2.293-3.578-3.342Z" fill="#fff"/></g><g clip-path="url(#c)"><path fill-rule="evenodd" clip-rule="evenodd" d="M312 31.999c0 12.666 7.36 23.613 18.035 28.799L314.77 18.977A31.89 31.89 0 0 0 312 31.999Zm53.602-1.614c0-3.956-1.422-6.694-2.638-8.824-1.622-2.638-3.144-4.87-3.144-7.507 0-2.942 2.23-5.68 5.374-5.68.142 0 .276.018.414.026A31.878 31.878 0 0 0 343.999 0c-11.18 0-21.014 5.736-26.736 14.422.752.024 1.46.038 2.06.038 3.346 0 8.528-.406 8.528-.406 1.724-.102 1.928 2.434.204 2.636 0 0-1.734.204-3.662.306l11.652 34.662 7.004-21.003-4.984-13.659c-1.724-.101-3.358-.305-3.358-.305-1.724-.102-1.522-2.739.204-2.637 0 0 5.284.406 8.428.406 3.347 0 8.529-.406 8.529-.406 1.726-.102 1.928 2.434.204 2.636 0 0-1.736.204-3.662.306l11.564 34.398 3.194-10.665c1.38-4.428 2.434-7.606 2.434-10.344Zm6.478-13.738c.138 1.02.216 2.112.216 3.29 0 3.246-.608 6.896-2.434 11.463l-9.775 28.258C369.602 54.112 376 43.804 376 32a31.845 31.845 0 0 0-3.92-15.353Zm-27.519 18.151-9.602 27.9c2.868.843 5.9 1.303 9.04 1.303 3.727 0 7.301-.644 10.627-1.814a3.042 3.042 0 0 1-.228-.44l-9.837-26.949Z" fill="#00759D"/></g><g clip-path="url(#d)"><rect x="416" width="64" height="64" rx="5" fill="#D9D9D9"/><path d="M429.9 13.299c1.792 1.455 2.464 1.344 5.828 1.12l31.716-1.905c.672 0 .113-.671-.111-.783l-5.268-3.807c-1.009-.784-2.354-1.681-4.931-1.457l-30.71 2.24c-1.12.111-1.344.671-.898 1.12l4.374 3.472Zm1.904 7.39V54.06c0 1.794.896 2.465 2.914 2.354l34.855-2.017c2.018-.111 2.243-1.345 2.243-2.801V18.449c0-1.455-.559-2.24-1.795-2.127l-36.424 2.127c-1.344.113-1.793.785-1.793 2.24Zm34.41 1.79c.223 1.01 0 2.018-1.011 2.131l-1.68.335V49.58c-1.458.783-2.802 1.231-3.923 1.231-1.794 0-2.243-.56-3.587-2.239l-10.985-17.245v16.686l3.476.784s0 2.014-2.804 2.014l-7.732.449c-.224-.449 0-1.567.784-1.792l2.018-.559V26.85l-2.801-.225c-.225-1.01.335-2.464 1.905-2.577l8.294-.559L459.6 40.96V25.505l-2.915-.335c-.223-1.233.672-2.129 1.793-2.24l7.736-.45ZM423.845 5.685l31.944-2.353c3.923-.336 4.932-.11 7.398 1.68l10.196 7.167c1.683 1.232 2.244 1.568 2.244 2.911v39.308c0 2.463-.898 3.92-4.035 4.143l-37.096 2.24c-2.356.112-3.477-.223-4.71-1.792l-7.509-9.743c-1.346-1.793-1.905-3.135-1.905-4.704V9.6c0-2.014.898-3.694 3.473-3.917Z" fill="#000"/></g><g clip-path="url(#e)"><path d="M54.4 104H9.6a9.6 9.6 0 0 0-9.6 9.6v44.8a9.6 9.6 0 0 0 9.6 9.6h44.8a9.6 9.6 0 0 0 9.6-9.6v-44.8a9.6 9.6 0 0 0-9.6-9.6Z" fill="#FD2"/><path d="m52.25 142.25-.75-2.125s3.125-4.75-4.625-6.375c0 0 .5-5.875-2.25-8.625 6-5.875 4.625-14.75-9-9-7-13.375-34 18-22.75 23-1.125 1.5-1.125 9 6.625 9.75 5.25 11.25 18 12 25.375 8.625s11.625-14.125 7.375-15.25Zm-32.875 5c-6.375-.625-7-9.375-1.5-10.25s6.875 10.75 1.5 10.25ZM17.5 135.375c-1.75 0-3.875 2.375-3.875 2.375-8.5-4.125 15.375-31.5 20.5-20.875 0 0-12.5 6-16.625 18.5ZM42.5 146c0-.5-2.625.75-7.375-.875.375-2.625 6 2.25 15.375-4.125l.75 2.625c3.5-.625 0 11.25-11.25 11.125-9.125-.125-12-9.5-7-14.625 1-1-3.625-3-2.75-7.375.375-1.875 2-4.625 6.125-3.875s5-3 7.75-1.625 1.125 6.625 1.5 7.375 4.375.875 5.125 3-5.125 6.75-14.25 5.5c-2.125-.25-3.375 2.5-2 4.25 2.75 4 14 1.375 15.875-2.5-4.75 3.625-14.5 5-15.25 1.125 2.75 1.25 7.375.5 7.375 0Zm-16.375-19.75c2.75-3.375 6.375-5.375 6.375-5.375l-.75 1.875s2.625-2 5.5-2l-1 1c3.25.125 4.625 1.375 4.625 1.375s-7.625-2.25-14.75 3.125ZM43 131.125c1.625-.125 1.125 3.625 1.125 3.625h-1s-1.75-3.5-.125-3.625Zm-7.375 4.125c-1.125.125-2.375.75-2.25.25.5-2 5.125-1.5 5 .25s-1.125-.75-2.75-.5Zm2.625 1.5c.125.25-.875 0-1.625.125s-1.5.5-1.5.25 2.875-1.375 3.125-.375Zm2.5.375c.375-.75 1.875 0 1.5.75s-1.875 0-1.5-.75Zm3.125.25c-.75 0-.75-1.625 0-1.625s.75 1.75 0 1.75v-.125ZM21.375 144c.375.375-.75 1.125-1.625.5s1-3.625-1.25-4.375-1.625 2.125-2.25 1.75.875-4.375 3.5-2.75-.75 4.125.75 4.875.625-.25.875 0Z" fill="#222"/></g><path d="M123.148 164.128c1.18 1.143.346 3.102-1.328 3.102h-10.48c-2.067 0-3.75-1.631-3.75-3.636v-10.159c0-1.623 2.021-2.431 3.2-1.288l12.358 11.981Z" fill="#0A1551"/><path d="M139.53 164.918a7.855 7.855 0 0 1 0-11.16l11.195-11.121c3.102-3.082 8.131-3.082 11.233 0a7.855 7.855 0 0 1 0 11.16l-11.195 11.121c-3.102 3.082-8.131 3.082-11.233 0Z" fill="#FFB629"/><path d="M109.955 136.972a7.855 7.855 0 0 1 0-11.16l18.84-18.73c3.101-3.082 8.131-3.082 11.233 0a7.855 7.855 0 0 1 0 11.16l-18.84 18.73c-3.102 3.082-8.131 3.082-11.233 0Z" fill="#09F"/><path d="M125.356 150.322a7.855 7.855 0 0 1 0-11.16l25.456-25.291c3.102-3.081 8.131-3.081 11.233 0a7.855 7.855 0 0 1 0 11.16l-25.456 25.291c-3.102 3.081-8.131 3.081-11.233 0Z" fill="#FF6100"/><path d="M240 168c17.673 0 32-14.327 32-32 0-17.673-14.327-32-32-32-17.673 0-32 14.327-32 32 0 17.673 14.327 32 32 32Z" fill="#0070BA"/><path d="M253.329 126.557c-.036.227-.077.46-.122.699-1.574 8.082-6.96 10.874-13.837 10.874h-3.502a1.7 1.7 0 0 0-1.681 1.44l-1.793 11.371-.508 3.224a.896.896 0 0 0 .884 1.035h6.211c.736 0 1.361-.534 1.477-1.259l.061-.316 1.169-7.421.075-.407a1.495 1.495 0 0 1 1.476-1.263h.929c6.018 0 10.728-2.443 12.105-9.513.575-2.953.278-5.419-1.244-7.154a5.929 5.929 0 0 0-1.7-1.31Z" fill="#fff" fill-opacity=".6"/><path d="M251.681 125.899a12.78 12.78 0 0 0-1.531-.339 19.401 19.401 0 0 0-3.087-.226h-9.355a1.493 1.493 0 0 0-1.475 1.263l-1.99 12.605-.057.368a1.7 1.7 0 0 1 1.681-1.441h3.502c6.877 0 12.263-2.793 13.837-10.873.047-.239.086-.472.122-.7a8.422 8.422 0 0 0-1.294-.546 13.394 13.394 0 0 0-.353-.111Z" fill="#fff" fill-opacity=".8"/><path d="M236.234 126.597a1.486 1.486 0 0 1 1.474-1.261h9.356c1.108 0 2.143.073 3.087.225a12.397 12.397 0 0 1 1.884.449c.465.154.896.336 1.295.546.468-2.986-.004-5.02-1.619-6.861-1.78-2.027-4.993-2.895-9.105-2.895H230.67c-.839 0-1.556.611-1.686 1.442l-4.971 31.513a1.025 1.025 0 0 0 1.011 1.186h7.369l1.85-11.739 1.991-12.605Z" fill="#fff"/><path d="M364.991 116.568c-.043-.32-.324-.497-.555-.517-.232-.019-5.126-.382-5.126-.382s-3.398-3.374-3.771-3.748c-.374-.373-1.103-.259-1.385-.176l-1.903.587c-1.135-3.267-3.139-6.269-6.664-6.269-.097 0-.197.004-.297.01-1.003-1.326-2.245-1.902-3.317-1.902-8.212 0-12.135 10.265-13.365 15.482-3.191.988-5.458 1.691-5.747 1.782-1.781.559-1.837.615-2.071 2.293-.177 1.271-4.837 37.31-4.837 37.31l36.313 6.804 19.676-4.257s-6.907-46.697-6.951-47.017Zm-14.747-3.615-3.072.951.002-.662c0-2.031-.282-3.666-.734-4.962 1.816.228 3.026 2.295 3.804 4.673Zm-6.057-4.27c.505 1.265.833 3.081.833 5.531l-.002.356-6.346 1.966c1.222-4.716 3.512-6.994 5.515-7.853Zm-2.44-2.31c.354 0 .711.121 1.053.356-2.631 1.238-5.452 4.357-6.644 10.586l-5.016 1.553c1.396-4.751 4.709-12.495 10.607-12.495Z" fill="#95BF46"/><path d="M364.436 116.051c-.232-.019-5.126-.382-5.126-.382s-3.398-3.374-3.771-3.748a.935.935 0 0 0-.525-.241l-2.746 56.161 19.674-4.256s-6.907-46.697-6.951-47.017c-.043-.321-.324-.497-.555-.517Z" fill="#5E8E3E"/><path d="m345.587 126.923-2.426 7.216s-2.125-1.134-4.731-1.134c-3.82 0-4.012 2.397-4.012 3.001 0 3.296 8.592 4.559 8.592 12.279 0 6.074-3.853 9.986-9.047 9.986-6.234 0-9.421-3.88-9.421-3.88l1.669-5.514s3.276 2.813 6.041 2.813c1.807 0 2.542-1.423 2.542-2.462 0-4.299-7.049-4.491-7.049-11.556 0-5.946 4.268-11.7 12.883-11.7 3.319 0 4.959.951 4.959.951Z" fill="#fff"/><g clip-path="url(#f)" fill="#8E75FF"><path d="M478.467 104.5h-42.064v21.09h20.698c.737 0 1.335.599 1.335 1.336v20.412h21.367v-41.5a1.336 1.336 0 0 0-1.336-1.338Z"/><path opacity=".405" d="M436.401 104.5v21.09h-19.733a.668.668 0 0 1-.469-1.145l20.202-19.945Zm23.173 62.805a.668.668 0 0 1-1.138-.476v-19.491h21.367l-20.229 19.965v.002ZM436.401 125.591h21.369c.366 0 .666.297.666.666v21.081h-20.697a1.336 1.336 0 0 1-1.336-1.336v-20.411h-.002Z"/></g><g clip-path="url(#g)"><path d="M32 272c17.673 0 32-14.327 32-32 0-17.673-14.327-32-32-32-17.673 0-32 14.327-32 32 0 17.673 14.327 32 32 32Z" fill="#FF7A59"/><path fill-rule="evenodd" clip-rule="evenodd" d="M38.987 247.059c-2.389 0-4.327-1.917-4.327-4.282s1.938-4.283 4.328-4.283c2.39 0 4.328 1.917 4.328 4.283 0 2.366-1.937 4.282-4.329 4.282Zm1.297-12.526v-3.813a2.927 2.927 0 0 0 1.708-2.643v-.088c0-1.611-1.333-2.929-2.96-2.929h-.089c-1.625 0-2.96 1.318-2.96 2.929v.088a2.927 2.927 0 0 0 1.709 2.643v3.813a8.449 8.449 0 0 0-3.991 1.736l-10.57-8.135a3.29 3.29 0 0 0 .119-.821c0-1.826-1.493-3.308-3.337-3.313-1.845-.005-3.341 1.474-3.343 3.301-.002 1.826 1.49 3.305 3.335 3.308a3.335 3.335 0 0 0 1.646-.443l10.398 8.006a8.257 8.257 0 0 0 .13 9.394l-3.164 3.131a2.721 2.721 0 0 0-2.254.29 2.725 2.725 0 0 0-1.242 1.903A2.712 2.712 0 0 0 28.13 256c1.515 0 2.744-1.216 2.744-2.716a2.64 2.64 0 0 0-.125-.776l3.125-3.095a8.456 8.456 0 0 0 5.112 1.717c4.664 0 8.442-3.739 8.442-8.353 0-4.176-3.102-7.625-7.146-8.244" fill="#fff"/></g><mask id="h" style="mask-type:luminance" maskUnits="userSpaceOnUse" x="113" y="208" width="46" height="64"><path d="M141.737 208.444h-24.383a4.316 4.316 0 0 0-4.303 4.303v54.505a4.315 4.315 0 0 0 4.303 4.303h37.292a4.315 4.315 0 0 0 4.303-4.303v-41.596l-17.212-17.212Z" fill="#fff"/></mask><g mask="url(#h)"><path d="M141.737 208.444h-24.383a4.316 4.316 0 0 0-4.303 4.303v54.505a4.315 4.315 0 0 0 4.303 4.303h37.292a4.315 4.315 0 0 0 4.303-4.303v-41.596l-10.04-7.171-7.172-10.041Z" fill="#673AB7"/></g><mask id="i" style="mask-type:luminance" maskUnits="userSpaceOnUse" x="113" y="208" width="46" height="64"><path d="M141.737 208.444h-24.383a4.316 4.316 0 0 0-4.303 4.303v54.505a4.315 4.315 0 0 0 4.303 4.303h37.292a4.315 4.315 0 0 0 4.303-4.303v-41.596l-17.212-17.212Z" fill="#fff"/></mask><g mask="url(#i)"><path d="M131.697 257.212h15.778v-2.869h-15.778v2.869Zm0-17.212v2.869h15.778V240h-15.778Zm-3.586 1.434a2.153 2.153 0 0 1-2.151 2.152 2.154 2.154 0 0 1-2.152-2.152 2.152 2.152 0 0 1 4.303 0Zm0 7.172a2.152 2.152 0 0 1-4.303 0c0-1.187.965-2.152 2.152-2.152 1.187 0 2.151.965 2.151 2.152Zm0 7.172a2.152 2.152 0 0 1-4.303 0c0-1.187.965-2.152 2.152-2.152 1.187 0 2.151.965 2.151 2.152Zm3.586-5.738h15.778v-2.868h-15.778v2.868Z" fill="#F1F1F1"/></g><mask id="j" style="mask-type:luminance" maskUnits="userSpaceOnUse" x="113" y="208" width="46" height="64"><path d="M141.737 208.444h-24.383a4.316 4.316 0 0 0-4.303 4.303v54.505a4.315 4.315 0 0 0 4.303 4.303h37.292a4.315 4.315 0 0 0 4.303-4.303v-41.596l-17.212-17.212Z" fill="#fff"/></mask><g mask="url(#j)"><path d="m142.996 224.398 15.954 15.95v-14.692l-15.954-1.258Z" fill="url(#k)"/></g><mask id="l" style="mask-type:luminance" maskUnits="userSpaceOnUse" x="113" y="208" width="46" height="64"><path d="M141.737 208.444h-24.383a4.316 4.316 0 0 0-4.303 4.303v54.505a4.315 4.315 0 0 0 4.303 4.303h37.292a4.315 4.315 0 0 0 4.303-4.303v-41.596l-17.212-17.212Z" fill="#fff"/></mask><g mask="url(#l)"><path d="M141.737 208.444v12.909a4.302 4.302 0 0 0 4.303 4.303h12.91l-17.213-17.212Z" fill="#B39DDB"/></g><mask id="m" style="mask-type:luminance" maskUnits="userSpaceOnUse" x="113" y="208" width="46" height="64"><path d="M141.737 208.444h-24.383a4.316 4.316 0 0 0-4.303 4.303v54.505a4.315 4.315 0 0 0 4.303 4.303h37.292a4.315 4.315 0 0 0 4.303-4.303v-41.596l-17.212-17.212Z" fill="#fff"/></mask><g mask="url(#m)"><path d="M117.354 208.444a4.316 4.316 0 0 0-4.303 4.303v.359a4.315 4.315 0 0 1 4.303-4.303h24.383v-.359h-24.383Z" fill="#fff" fill-opacity=".2"/></g><mask id="n" style="mask-type:luminance" maskUnits="userSpaceOnUse" x="113" y="208" width="46" height="64"><path d="M141.737 208.444h-24.383a4.316 4.316 0 0 0-4.303 4.303v54.505a4.315 4.315 0 0 0 4.303 4.303h37.292a4.315 4.315 0 0 0 4.303-4.303v-41.596l-17.212-17.212Z" fill="#fff"/></mask><g mask="url(#n)"><path d="M154.646 271.197h-37.292a4.316 4.316 0 0 1-4.303-4.303v.358a4.315 4.315 0 0 0 4.303 4.303h37.292a4.315 4.315 0 0 0 4.303-4.303v-.358a4.316 4.316 0 0 1-4.303 4.303Z" fill="#311B92" fill-opacity=".2"/></g><mask id="o" style="mask-type:luminance" maskUnits="userSpaceOnUse" x="113" y="208" width="46" height="64"><path d="M141.737 208.444h-24.383a4.316 4.316 0 0 0-4.303 4.303v54.505a4.315 4.315 0 0 0 4.303 4.303h37.292a4.315 4.315 0 0 0 4.303-4.303v-41.596l-17.212-17.212Z" fill="#fff"/></mask><g mask="url(#o)"><path d="M146.04 225.657a4.302 4.302 0 0 1-4.303-4.303v.358a4.302 4.302 0 0 0 4.303 4.303h12.91v-.358h-12.91Z" fill="#311B92" fill-opacity=".1"/></g><path d="M141.737 208.444h-24.383a4.316 4.316 0 0 0-4.303 4.303v54.505a4.315 4.315 0 0 0 4.303 4.303h37.292a4.315 4.315 0 0 0 4.303-4.303v-41.596l-17.212-17.212Z" fill="url(#p)"/><path fill-rule="evenodd" clip-rule="evenodd" d="m236.003 228.723-3.104 11.421 17.759-11.485-11.614 43.33 11.794.011 17.155-64-31.99 20.723Z" fill="#3395FF"/><path fill-rule="evenodd" clip-rule="evenodd" d="M216.889 253.784 212.007 272h24.173l9.89-37.058-29.181 18.842Z" fill="#072654"/><path d="M334.994 252.463c-3.389-3.19-5.383-7.577-5.383-12.561 0-4.985 1.994-9.372 5.184-12.562 2.791-2.791 2.791-7.178 0-9.969-2.792-2.791-7.178-2.791-9.969 0-5.583 5.782-9.172 13.758-9.172 22.531 0 8.772 3.589 16.748 9.371 22.53 2.791 2.791 7.178 2.791 9.969 0 2.592-2.791 2.592-7.178 0-9.969Z" fill="#FAE501"/><path d="M334.994 227.34c3.19-3.389 7.577-5.383 12.561-5.383 4.985 0 9.371 1.994 12.562 5.184 2.791 2.791 7.177 2.791 9.969 0 2.791-2.792 2.791-7.178 0-9.969-5.782-5.583-13.758-9.172-22.531-9.172-8.772 0-16.748 3.589-22.53 9.371-2.791 2.791-2.791 7.178 0 9.969 2.791 2.592 7.178 2.592 9.969 0Z" fill="#4FB5E1"/><path d="M360.117 252.463c-3.191 3.389-7.577 5.383-12.562 5.383-4.984 0-9.371-1.994-12.561-5.184-2.791-2.791-7.178-2.791-9.969 0-2.791 2.791-2.791 7.178 0 9.969 5.782 5.583 13.758 9.172 22.53 9.172 8.773 0 16.749-3.589 22.531-9.371 2.791-2.792 2.791-7.178 0-9.969-2.792-2.592-7.178-2.592-9.969 0Z" fill="#F05751"/><path d="M330.01 229.334a6.979 6.979 0 1 0-.001-13.957 6.979 6.979 0 0 0 .001 13.957Z" fill="#0681B6"/><path d="M330.01 264.426a6.979 6.979 0 1 0-.001-13.957 6.979 6.979 0 0 0 .001 13.957Z" fill="#CD4739"/><g clip-path="url(#q)"><path d="M466.977 208h-37.954c-7.192 0-13.023 5.879-13.023 13.13v37.74c0 7.251 5.831 13.13 13.023 13.13h37.954c7.192 0 13.023-5.879 13.023-13.13v-37.74c0-7.251-5.831-13.13-13.023-13.13Z" fill="#10A37F"/><path d="M463.335 236.751a8.916 8.916 0 0 0-.766-7.325 9.026 9.026 0 0 0-9.717-4.329 8.921 8.921 0 0 0-6.671-2.999h-.078a9.023 9.023 0 0 0-8.584 6.246 8.92 8.92 0 0 0-5.964 4.327 9.023 9.023 0 0 0 1.11 10.578 8.916 8.916 0 0 0 .766 7.325 9.023 9.023 0 0 0 9.716 4.329 8.921 8.921 0 0 0 6.671 2.999h.08a9.022 9.022 0 0 0 8.585-6.249 8.918 8.918 0 0 0 5.964-4.328 9.017 9.017 0 0 0-1.112-10.573v-.001Zm-13.458 18.811h-.009a6.7 6.7 0 0 1-4.286-1.553c.072-.039.142-.079.212-.12l7.129-4.118a1.158 1.158 0 0 0 .586-1.008v-10.057l3.013 1.74a.106.106 0 0 1 .059.082v8.324a6.72 6.72 0 0 1-6.704 6.71Zm-14.416-6.158a6.687 6.687 0 0 1-.801-4.496c.053.032.146.089.212.127l7.129 4.118a1.155 1.155 0 0 0 1.171-.001l8.704-5.025V247.613a.116.116 0 0 1-.011.048.098.098 0 0 1-.032.038l-7.207 4.161a6.715 6.715 0 0 1-9.165-2.456Zm-1.875-15.563a6.69 6.69 0 0 1 3.492-2.942l-.003.246v8.243a1.158 1.158 0 0 0 .585 1.006l8.703 5.025-3.013 1.74a.096.096 0 0 1-.049.017.102.102 0 0 1-.052-.008l-7.208-4.164a6.717 6.717 0 0 1-2.455-9.162v-.001Zm24.756 5.761-8.703-5.025 3.013-1.739a.112.112 0 0 1 .05-.018.118.118 0 0 1 .052.008l7.207 4.161a6.72 6.72 0 0 1 3.354 5.812 6.712 6.712 0 0 1-4.391 6.297V240.606a1.162 1.162 0 0 0-.582-1.004Zm3-4.514a9.09 9.09 0 0 0-.212-.126l-7.129-4.118a1.17 1.17 0 0 0-1.171 0l-8.704 5.026V232.384c0-.034.016-.066.043-.086l7.207-4.158a6.711 6.711 0 0 1 9.966 6.948Zm-18.854 6.203-3.014-1.74a.11.11 0 0 1-.04-.034.11.11 0 0 1-.019-.049v-8.323a6.711 6.711 0 0 1 11.004-5.153c-.054.03-.149.082-.211.12l-7.129 4.118a1.163 1.163 0 0 0-.586 1.007v.007l-.005 10.047Zm1.637-3.529 3.876-2.239 3.877 2.237v4.477l-3.877 2.237-3.876-2.237v-4.475Z" fill="#fff"/></g><defs><clipPath id="a"><path fill="#fff" transform="translate(104)" d="M0 0h64v64H0z"/></clipPath><clipPath id="b"><path fill="#fff" transform="translate(208)" d="M0 0h64v64H0z"/></clipPath><clipPath id="c"><path fill="#fff" transform="translate(312)" d="M0 0h64v64H0z"/></clipPath><clipPath id="d"><path fill="#fff" transform="translate(416)" d="M0 0h64v64H0z"/></clipPath><clipPath id="e"><path fill="#fff" transform="translate(0 104)" d="M0 0h64v64H0z"/></clipPath><clipPath id="f"><path fill="#fff" transform="translate(416 104)" d="M0 0h64v64H0z"/></clipPath><clipPath id="g"><path fill="#fff" transform="translate(0 208)" d="M0 0h64v64H0z"/></clipPath><clipPath id="q"><path fill="#fff" transform="translate(416 208)" d="M0 0h64v64H0z"/></clipPath><radialGradient id="p" cx="0" cy="0" r="1" gradientUnits="userSpaceOnUse" gradientTransform="matrix(7401.14 0 0 7401.15 258.461 333.18)"><stop stop-color="#fff" stop-opacity=".1"/><stop offset="1" stop-color="#fff" stop-opacity="0"/></radialGradient><linearGradient id="k" x1="940.756" y1="361.349" x2="940.756" y2="1819.61" gradientUnits="userSpaceOnUse"><stop stop-color="#311B92" stop-opacity=".2"/><stop offset="1" stop-color="#311B92" stop-opacity=".02"/></linearGradient></defs></svg>