<svg width="118" height="48" fill="none" xmlns="http://www.w3.org/2000/svg"><g clip-path="url(#a)"><mask id="b" style="mask-type:luminance" maskUnits="userSpaceOnUse" x="0" y="0" width="118" height="48"><path d="M117.589 0H0v47.8h117.589V0Z" fill="#fff"/></mask><g mask="url(#b)" fill="#fff"><path d="M26.97 47.549V35.507l.252-.251h2.509l.25.251V47.55l-.25.251h-2.509l-.251-.251ZM26.97 12.292V.252L27.223 0h2.509l.25.251v12.041l-.25.251h-2.509l-.251-.25ZM16.066 38.868h-.355l-1.773-1.774v-.355l4.141-4.14h1.878l.252.25v1.878l-4.143 4.141ZM16.064 8.932h-.354l-1.774 1.775v.354l4.142 4.141h1.878l.252-.251v-1.878l-4.144-4.14ZM.251 22.395h17.06l.25.25v2.51l-.25.25H.25L0 25.155v-2.51l.251-.25ZM101.282 22.395h16.056l.251.25v2.51l-.251.25h-17.059l-.251-.25 1.003-2.51.251-.25ZM48.702 24.97l-.251.252h-7.782l-.251.251c0 .502.502 2.008 2.51 2.008.753 0 1.506-.251 1.757-.753l.251-.251h3.013l.25.25c-.25 1.507-1.505 3.767-5.27 3.767-4.268 0-6.277-3.013-6.277-6.527 0-3.514 2.008-6.526 6.025-6.526s6.025 3.012 6.025 6.526v1.005-.001Zm-3.766-2.51c0-.25-.251-2.008-2.26-2.008-2.007 0-2.258 1.757-2.258 2.008l.25.252h4.017l.251-.252ZM55.73 26.477c0 .502.252.753.754.753h2.259l.251.25v2.511l-.251.251h-2.26c-2.258 0-4.266-1.004-4.266-3.765v-5.523l-.252-.251H50.21l-.252-.252v-2.51l.252-.25h1.756l.252-.252v-2.26l.25-.25h3.013l.251.25v2.26l.252.251h2.76l.252.251v2.51l-.251.252h-2.761l-.252.25v5.524ZM65.018 30.243h-3.012l-.252-.252V12.922l.252-.251h3.012l.251.251v17.07l-.25.25ZM71.796 15.683h-3.013l-.251-.25v-2.511l.251-.251h3.013l.25.251v2.51l-.25.251Zm0 14.56h-3.013l-.251-.252V17.942l.251-.25h3.013l.25.25v12.05l-.25.25ZM83.594 12.922v2.51l-.252.251h-2.259c-.502 0-.753.252-.753.754v1.004l.251.251h2.51l.251.251v2.51l-.25.252H80.58l-.251.25v9.037l-.251.251h-3.013l-.25-.25v-9.037l-.252-.251h-1.757l-.251-.251v-2.51l.251-.252h1.757l.251-.25v-1.005c0-2.762 2.008-3.766 4.267-3.766h2.26l.25.251h.002ZM92.881 30.494c-1.004 2.51-2.008 4.016-5.523 4.016h-1.255l-.251-.251v-2.51l.25-.252h1.256c1.255 0 1.506-.25 1.757-1.004v-.251l-4.016-9.79v-2.51l.251-.252h2.26l.25.252 3.013 8.535h.251l3.013-8.535.25-.252h2.26l.251.252v2.51l-4.016 10.04v.002ZM31.109 30.243l-.251-.252.002-7.273c0-1.255-.494-2.227-2.008-2.26-.78-.02-1.67 0-2.622.04l-.142.145.002 9.348-.252.252h-3.011l-.251-.252V17.808l.25-.25 6.778-.062c3.395 0 4.77 2.332 4.77 4.966v7.53l-.252.25H31.11Z"/></g></g><defs><clipPath id="a"><path fill="#fff" d="M0 0h117.589v48H0z"/></clipPath></defs></svg>