<svg width="173" height="84" fill="none" xmlns="http://www.w3.org/2000/svg"><path d="M4.46 48.913c-2.973 0-4.46-1.239-4.46-3.716v-6.394c0-2.477 1.487-3.716 4.46-3.716h30.627V4.46c0-2.973 1.239-4.46 3.716-4.46h6.394c2.477 0 3.716 1.487 3.716 4.46v30.627H79.54c2.973 0 4.46 1.239 4.46 3.716v6.394c0 2.477-1.487 3.716-4.46 3.716H48.913V79.54c0 2.973-1.239 4.46-3.716 4.46h-6.394c-2.477 0-3.716-1.487-3.716-4.46V48.913H4.46Z" fill="#fff"/><path d="M90.499 76.756c-2.198-2.198-1.978-4.647.659-7.347L118.567 42l-27.41-27.503c-2.636-2.638-2.856-5.055-.658-7.253l5.745-5.746c2.198-2.197 4.647-1.978 7.347.66L131 29.567l27.409-27.41c2.637-2.637 5.086-2.856 7.347-.659l5.746 5.746c2.197 2.198 1.978 4.615-.66 7.253L143.339 42l27.503 27.41c2.638 2.636 2.857 5.085.66 7.346l-5.746 5.745c-2.198 2.198-4.647 1.978-7.347-.659L131 54.34l-27.409 27.503c-2.637 2.638-5.086 2.857-7.347.66l-5.745-5.746Z" fill="#fff" fill-opacity=".25"/></svg>