<svg width="100" height="100" fill="none" xmlns="http://www.w3.org/2000/svg"><g clip-path="url(#a)" fill="#fff"><path d="M98.462 4.384a3.905 3.905 0 0 0-2.856-2.856C95.355 1.466 89.358.01 81.359.01c-9.104 0-21.892 1.935-31.114 11.157-3.417 3.417-6.738 7.448-9.845 11.668-4.583.555-9.493 1.928-14.654 4.104C8.273 34.3.666 50.666.35 51.359a3.905 3.905 0 0 0 2.738 5.435l19.015 4.063 17.03 17.03L43.194 96.9a3.906 3.906 0 0 0 5.436 2.739c.693-.316 17.057-7.924 24.42-25.396 2.434-5.775 3.62-10.666 4.11-14.659 4.218-3.106 8.246-6.425 11.661-9.84 16.52-16.519 9.928-44.191 9.64-45.36ZM22.178 52.888l-12.216-2.61c3.123-4.708 9.245-12.11 18.815-16.143a56.902 56.902 0 0 1 5.192-1.904c-5.44 8.5-9.683 16.508-11.791 20.657ZM65.855 71.21c-4.008 9.51-11.427 15.655-16.146 18.799L47.102 77.81c4.15-2.109 12.162-6.355 20.666-11.797a57.964 57.964 0 0 1-1.913 5.197ZM78.43 42.543a14.74 14.74 0 0 1-10.491 4.346c-3.964 0-7.69-1.544-10.492-4.346-5.785-5.785-5.785-15.199 0-20.984a14.74 14.74 0 0 1 10.492-4.346c3.963 0 7.69 1.543 10.491 4.346 5.786 5.786 5.786 15.199 0 20.984Z"/><path d="m3.61 95.94 6.1-20.758c2.09-7.115 10.926-9.559 16.376-4.53l.93.86c5.45 5.03 3.721 14.033-3.204 16.686L3.61 95.94Z" fill-opacity=".25"/><circle cx="68" cy="32" r="8" fill-opacity=".25"/></g><defs><clipPath id="a"><path fill="#fff" d="M0 0h100v100H0z"/></clipPath></defs></svg>