<svg width="100" height="88" fill="none" xmlns="http://www.w3.org/2000/svg"><path d="M1.902 29.58C.062 28.5-.443 26.676.388 24.11 3.06 15.87 6.682 9.793 11.255 5.876 15.826 1.959 22.328 0 30.76 0c7.72 0 15.498 3.58 23.336 10.738 7.838 7.159 13.984 10.738 18.438 10.738 4.453 0 7.69-1.047 9.708-3.14 2.02-2.094 3.8-4.694 5.345-7.8 1.544-3.04 3.087-4.053 4.631-3.04l5.879 3.647c1.84 1.08 2.345 2.904 1.514 5.47-2.672 8.24-6.294 14.318-10.866 18.235-4.573 3.917-11.075 5.876-19.507 5.876-7.72 0-15.498-3.58-23.336-10.738-7.838-7.16-13.984-10.739-18.438-10.739-4.453 0-7.69 1.047-9.708 3.14-2.02 2.094-3.8 4.694-5.345 7.801-1.544 3.04-3.087 4.052-4.631 3.04L1.902 29.58Z" fill="#fff" fill-opacity=".25"/><path d="M1.902 76.304C.062 75.224-.443 73.4.388 70.834c2.672-8.24 6.294-14.318 10.867-18.235 4.572-3.917 11.074-5.875 19.506-5.875 7.72 0 15.498 3.579 23.336 10.738C61.935 64.62 68.081 68.2 72.535 68.2c4.453 0 7.69-1.047 9.708-3.14 2.02-2.094 3.8-4.694 5.345-7.801 1.544-3.039 3.087-4.052 4.631-3.039l5.879 3.647c1.84 1.08 2.345 2.904 1.514 5.47-2.672 8.24-6.294 14.318-10.866 18.235-4.573 3.917-11.075 5.875-19.507 5.875-7.72 0-15.498-3.58-23.336-10.738-7.838-7.159-13.984-10.738-18.438-10.738-4.453 0-7.69 1.047-9.708 3.14-2.02 2.094-3.8 4.694-5.345 7.8-1.544 3.04-3.087 4.053-4.631 3.04l-5.879-3.647Z" fill="#fff"/></svg>