<svg width="161" height="100" fill="none" xmlns="http://www.w3.org/2000/svg"><path d="M85.733 55.23c-10.598 5.707-11.608-4.69-11.608-4.69-8.77-1.018-15.282-10.804-15.282-10.804-11.832 6.112-5.233 23.358-.139 29.98.68.88 1.214 1.824 1.663 2.796h8.446v12.271h11.702V100H0V84.783h11.703V72.512h8.306c-10.124-12.824-7.49-24.922-4.585-32.93 3.508-9.643 8.25-14.936 15.164-20.568 10.28-8.381 29.27-9.43 29.27-9.43.124-.711.705-1.545 1.448-2.397a82.668 82.668 0 0 0-8.256.663c-2.175.425-4.568.66-6.997 1.37-2.484.539-5.006 1.401-7.583 2.391-2.574.96-5.105 2.324-7.605 3.744-2.373 1.655-4.896 3.18-6.89 5.362-2.288 1.864-3.955 4.292-5.667 6.611-1.787 2.279-2.666 5.062-4.004 7.457-.992 2.554-1.546 5.19-2.294 7.6-.678 2.43-.666 4.862-1.007 7.051-.29 2.187-.51 4.2-.343 5.995.057 1.794.095 3.371.136 4.654.075 2.577.123 4.056.123 4.056l-.357.034s-.306-1.444-.709-4.045c-.19-1.3-.426-2.882-.686-4.712-.393-1.817-.404-3.9-.233-6.193.13-1.64.152-3.424.306-5.254l-4.283-.092 4.387-5.369-4.604-.666 6.578-5.038-4.825-1.535 6.801-3.732-5.155-1.535 8.885-2.857-6.142-1.755 9.979-2.743-5.487-2.522 10.088-1.317-4.933-2.848 12.316-1.29c.054-.029.116-.062.172-.08l-5.69-2.577 12.944-1.099-5.925-3.071 24.485 1.95c1.324.051 2.48.155 3.533.27C65.51 3.052 70.452 0 70.452 0c-1.012 1.014-1.427 6.526-1.427 6.526 1.022-1.836 4.28-3.67 4.28-3.67-1.829 4.273 0 13.443 0 13.443 5.305 5.304 11.216 23.64 11.216 23.64l2.25 3.258c2.845 4.093 1.795 10.508-1.038 12.033Z" fill="#fff"/><path d="M158.967 96.916c.509 1.129 1.054 3.083 1.054 3.083H89.035s.578-2.297 1.174-3.483c.575-1.174 2.969-3.188 3.005-3.258-2.779-3.085-5.118-7.053-4.718-11.776.392-4.745 9.89-14.363 9.944-14.613h-.936c-.696-.033-2.809-1.162-2.36-2.628.508-1.842 2.784-2.303 3.459-2.303h1.785c.177-.295.472-.894.472-.894l4.543-35.17h.021l-.412-.636c-.645.01-4.971-.27-4.931-3.089.036-3.052 4.154-3.164 4.271-3.474h-.171s-4.859-2.417-8.192-7.896C92.654 5.297 92.311.002 92.311.002h16.033l-1.141 8.76h11.235l-1.135-8.76h14.36l-1.135 8.76h11.235l-1.141-8.76h16.033s-.728 6.33-3.672 10.777c-2.945 4.45-8.433 7.896-8.433 7.896s4.209 1.319 4.724 3.411c.439 1.68-3.098 3.026-3.802 3.056-.073 0-.63 0-1.524.006 0 0 4.597 36.543 4.639 36.802h2.4c.671 0 3.1.4 3.603 2.24.44 1.469-1.815 2.658-2.52 2.691h-.009c.049.259 8.264 9.802 8.61 14.613.331 4.579-2.206 8.742-4.931 11.819.112.346 2.716 2.474 3.227 3.603Z" fill="#fff" fill-opacity=".25"/></svg>