<svg width="161" height="84" fill="none" xmlns="http://www.w3.org/2000/svg"><path d="M1.402 76.417c-2.008-1.383-1.86-3.269.446-5.657L29.402 42 1.848 13.24c-2.305-2.388-2.454-4.274-.446-5.657l9.817-6.6c2.38-1.572 4.61-1.258 6.693.942l34.359 36.398c2.305 2.451 2.305 4.903 0 7.355L17.912 82.075c-2.082 2.2-4.313 2.514-6.693.943l-9.817-6.6Z" fill="#fff"/><path d="M55.402 76.417c-2.008-1.383-1.86-3.269.446-5.657L83.402 42 55.848 13.24c-2.305-2.388-2.454-4.274-.446-5.657l9.817-6.6c2.38-1.572 4.61-1.258 6.693.942l34.359 36.398c2.305 2.451 2.305 4.903 0 7.355L71.912 82.075c-2.082 2.2-4.313 2.514-6.693.943l-9.817-6.6Z" fill="#fff" fill-opacity=".25"/><path d="M109.376 76.417c-1.971-1.383-1.825-3.269.438-5.657L136.858 42l-27.044-28.76c-2.263-2.388-2.409-4.274-.438-5.657l9.635-6.6c2.336-1.572 4.526-1.258 6.569.942l33.723 36.398c2.263 2.451 2.263 4.903 0 7.355L125.58 82.075c-2.043 2.2-4.233 2.514-6.569.943l-9.635-6.6Z" fill="#fff" fill-opacity=".25"/></svg>