<svg width="126" height="48" fill="none" xmlns="http://www.w3.org/2000/svg"><path d="M62.658 17c-4.905 0-8.441 3.15-8.441 7.875s3.98 7.875 8.885 7.875c2.963 0 5.575-1.155 7.193-3.102l-3.399-1.934c-.897.967-2.261 1.532-3.794 1.532-2.128 0-3.936-1.094-4.607-2.844h12.448c.098-.49.156-.998.156-1.531 0-4.721-3.537-7.871-8.441-7.871Zm-4.203 6.344c.556-1.746 2.075-2.844 4.198-2.844 2.128 0 3.648 1.098 4.199 2.844h-8.397ZM110.495 17c-4.904 0-8.441 3.15-8.441 7.875s3.981 7.875 8.886 7.875c2.963 0 5.575-1.155 7.192-3.102l-3.398-1.934c-.898.967-2.262 1.532-3.794 1.532-2.128 0-3.937-1.094-4.607-2.844h12.448c.097-.49.155-.998.155-1.531 0-4.721-3.536-7.871-8.441-7.871Zm-4.198 6.344c.555-1.746 2.075-2.844 4.198-2.844 2.128 0 3.648 1.098 4.199 2.844h-8.397Zm-17.34 1.531c0 2.625 1.742 4.375 4.443 4.375 1.83 0 3.203-.818 3.91-2.152l3.412 1.938c-1.413 2.318-4.06 3.714-7.322 3.714-4.909 0-8.44-3.15-8.44-7.875S88.496 17 93.4 17c3.261 0 5.904 1.396 7.322 3.714l-3.412 1.939c-.707-1.335-2.08-2.153-3.91-2.153-2.696 0-4.442 1.75-4.442 4.375ZM125.6 12.187v20.126h-3.998V12.186h3.998ZM16.415 10l16.416 28H0l16.415-28Zm41.04 2.188-12.31 21-12.31-21h4.616l7.694 13.124 7.695-13.125h4.616Zm26.172 5.25v4.239a5.135 5.135 0 0 0-1.422-.215c-2.581 0-4.442 1.75-4.442 4.375v6.476h-3.999V17.437h3.999v4.025c0-2.222 2.625-4.024 5.864-4.024Z" fill="#fff"/></svg>