<svg width="217" height="80" fill="none" xmlns="http://www.w3.org/2000/svg"><path d="M3.335 80c-3.567 0-4.273-1.6-2.118-4.798l24.69-36.485L3.225 4.797C1.069 1.6 1.774 0 5.342 0H16.6c1.97 0 3.641 1.097 5.016 3.291l15.216 24.1 15.215-24.1C53.422 1.097 55.094 0 57.063 0h11.259c3.567 0 4.272 1.6 2.117 4.798L47.7 38.717l24.747 36.485C74.6 78.401 73.895 80 70.328 80H58.903c-1.933 0-3.605-1.097-5.017-3.291L36.832 50.041 19.777 76.708C18.365 78.903 16.693 80 14.761 80H3.335Z" fill="#fff" fill-opacity=".25"/><path d="M81.85 44.938c-2.125 0-3.187-.885-3.187-2.655v-4.566c0-1.77 1.062-2.655 3.186-2.655h21.876V13.186c0-2.124.885-3.186 2.655-3.186h4.567c1.769 0 2.654 1.062 2.654 3.186v21.876h21.877c2.123 0 3.185.885 3.185 2.655v4.566c0 1.77-1.062 2.655-3.185 2.655h-21.877v21.876c0 2.124-.885 3.186-2.654 3.186h-4.567c-1.77 0-2.655-1.062-2.655-3.186V44.938H81.849Z" fill="#fff"/><path d="M144.637 4.798C142.74 1.599 143.614 0 147.259 0h9.763c1.934 0 3.645 1.283 5.133 3.85l11.882 20.697c.335.558 1.321 2.306 2.957 5.244 1.637 2.9 2.585 5.727 2.845 8.48h.224c.26-2.753 1.208-5.58 2.845-8.48 1.636-2.938 2.622-4.686 2.957-5.244l11.882-20.698C199.235 1.283 200.946 0 202.88 0h9.763c3.645 0 4.519 1.6 2.622 4.798L188.096 50.71v26.22c0 2.046-1.302 3.069-3.905 3.069h-8.48c-2.603 0-3.905-1.023-3.905-3.068v-26.22L144.637 4.797Z" fill="#fff" fill-opacity=".25"/></svg>